<svg xmlns="http://www.w3.org/2000/svg" version="1.0" width="700.000000pt" height="393.000000pt" viewBox="0 0 700.000000 393.000000" preserveAspectRatio="xMidYMid meet">

<g transform="translate(0.000000,393.000000) scale(0.100000,-0.100000)" fill="#999" stroke="none">
<path fill="salmon" stroke="red" d="M90 3909 l-35 -20 30 5 c17 2 39 8 50 11 l20 7 -20 -13 c-31 -20 -45 -36 -37 -44 4 -5 0 -6 -10 -2 -9 3 -23 -2 -34 -14 -17 -19 -17 -20 2 -13 16 6 16 4 -5 -19 -29 -32 -15 -36 18 -6 18 17 20 23 9 37 -10 14 -10 15 2 5 11 -10 20 -9 44 6 35 21 121 38 111 21 -3 -5 -13 -10 -22 -10 -9 0 -13 -6 -9 -15 3 -8 1 -15 -4 -15 -6 0 -10 -7 -10 -16 0 -8 -4 -13 -9 -9 -5 3 -12 2 -15 -3 -7 -11 31 -12 61 -1 l24 9 -21 -30 c-12 -16 -18 -30 -14 -30 3 0 0 -7 -7 -17 -13 -15 -12 -15 8 -4 13 6 22 15 20 19 -1 4 5 17 14 30 14 19 17 20 23 7 3 -9 2 -13 -4 -10 -5 3 -12 -5 -15 -18 -4 -14 -18 -30 -31 -38 -18 -9 -21 -15 -13 -23 8 -8 13 -7 16 2 3 6 9 12 14 12 6 0 7 -5 3 -11 -4 -8 0 -9 15 -4 11 3 21 2 21 -3 0 -5 -9 -12 -20 -15 -11 -3 -20 -10 -20 -17 0 -10 15 -9 58 7 6 3 12 0 12 -6 0 -7 -7 -14 -16 -18 -14 -5 -13 -8 7 -19 20 -10 25 -9 36 5 7 9 13 11 13 5 0 -6 -6 -17 -14 -23 -12 -10 -45 4 -169 68 -84 45 -157 81 -160 81 -4 0 -6 -50 -6 -112 1 -91 4 -109 14 -95 7 9 15 17 19 17 4 0 -2 -14 -14 -30 -14 -20 -19 -37 -14 -48 4 -9 6 -27 5 -39 -3 -31 7 -29 21 5 10 23 12 24 16 8 2 -11 10 -25 16 -32 10 -10 16 -6 30 17 19 32 43 42 27 10 -8 -15 -9 -45 -2 -100 1 -3 8 4 16 15 10 13 14 15 15 5 0 -8 -7 -23 -17 -33 -20 -22 -11 -24 12 -2 12 13 19 14 30 4 13 -10 15 -8 16 11 0 13 3 18 6 11 4 -10 8 -10 19 -1 21 17 28 4 11 -21 -11 -15 -16 -18 -20 -8 -3 7 -6 3 -6 -10 -1 -21 -4 -23 -43 -18 -24 3 -69 8 -100 11 l-58 6 0 -51 c0 -32 4 -49 10 -45 5 3 10 -1 10 -10 0 -9 -5 -13 -11 -9 -7 4 -9 -17 -5 -72 7 -102 7 -99 2 -234 -2 -67 -1 -96 3 -70 l7 45 9 -44 c6 -34 10 -40 17 -27 5 10 7 23 4 31 -5 15 23 80 31 71 2 -2 0 -13 -6 -24 -6 -11 -9 -37 -7 -58 3 -31 -1 -44 -22 -67 l-27 -28 -7 28 c-3 15 -6 -108 -6 -275 1 -166 5 -305 9 -308 5 -3 9 2 9 10 0 9 9 16 20 16 11 0 20 -6 20 -12 0 -9 4 -8 10 2 5 8 10 11 10 6 0 -5 7 -3 15 4 8 7 15 9 15 4 0 -20 -44 -134 -51 -134 -5 0 -9 5 -9 10 0 6 -4 10 -9 10 -5 0 -17 -24 -25 -54 -13 -44 -16 -111 -16 -351 0 -163 4 -294 8 -291 4 2 14 -4 20 -15 12 -19 11 -19 -8 -9 -21 11 -21 10 -18 -119 1 -71 6 -127 11 -124 4 3 6 11 3 18 -2 7 1 18 7 24 8 8 8 11 -1 11 -7 0 -12 9 -12 20 0 13 7 20 18 20 12 0 18 -7 17 -18 -8 -75 -19 -140 -27 -157 -6 -12 0 -9 16 9 14 16 26 37 26 47 0 24 20 35 31 18 6 -11 9 -8 9 8 0 12 5 25 10 28 13 8 3 -38 -16 -77 -8 -15 -14 -36 -14 -48 0 -19 -18 -26 -57 -21 -15 2 -21 -22 -22 -93 0 -54 7 -72 13 -30 2 10 8 20 14 22 7 2 5 -12 -5 -37 -9 -23 -12 -48 -8 -58 6 -14 11 -9 23 27 15 42 16 43 23 20 4 -14 7 -18 8 -10 1 12 3 12 15 0 19 -19 34 -76 17 -66 -6 4 -8 12 -5 18 4 6 2 8 -3 5 -7 -5 -7 -21 0 -51 8 -36 7 -54 -5 -84 -13 -34 -13 -40 -1 -48 11 -7 12 -15 5 -34 -5 -14 -12 -24 -16 -22 -14 5 -26 1 -26 -9 0 -14 -25 -39 -39 -39 -8 0 -11 -83 -11 -265 l0 -265 1759 0 1760 0 3 145 c2 116 6 148 18 155 23 15 30 12 30 -12 0 -20 1 -21 20 -3 29 26 25 1 -5 -29 -24 -24 -35 -53 -15 -41 5 3 10 -1 10 -9 0 -9 -4 -16 -10 -16 -5 0 -10 -12 -10 -27 l1 -28 13 25 14 24 5 -24 4 -25 8 22 c4 13 11 20 16 17 5 -3 9 -2 10 3 0 4 2 23 4 41 5 48 27 92 47 92 19 0 34 -18 23 -28 -4 -4 -10 -1 -12 6 -9 25 -22 11 -32 -38 -12 -55 -7 -81 15 -73 8 3 14 0 14 -6 0 -6 4 -11 9 -11 5 0 13 26 19 58 l9 57 3 -60 2 -60 10 53 c11 61 23 62 20 2 -2 -23 2 -40 8 -40 5 0 10 12 11 28 l0 27 10 -24 c5 -14 7 -31 5 -38 -3 -7 -1 -13 5 -13 6 0 6 -7 -1 -20 -13 -25 -9 -122 5 -127 6 -2 10 20 10 52 0 33 5 59 14 67 11 10 14 10 18 0 3 -6 9 -10 14 -6 5 3 8 -19 8 -51 -2 -51 4 -75 15 -64 2 2 6 42 8 89 2 47 7 88 13 92 6 4 2 13 -10 22 -20 15 -19 15 5 16 14 1 19 4 13 7 -18 7 -16 32 2 39 18 7 20 31 3 36 -8 3 -8 9 -2 21 9 16 12 15 35 -9 16 -18 20 -28 12 -31 -9 -3 -8 -11 3 -29 10 -14 14 -37 12 -53 -2 -17 -1 -28 4 -25 4 3 8 -1 8 -9 0 -10 -11 -14 -36 -13 l-36 1 -5 -77 c-3 -52 -1 -78 6 -78 6 0 11 11 11 25 0 18 5 25 20 25 18 0 25 -16 21 -42 0 -5 103 -8 229 -8 l230 0 0 40 c0 32 -4 40 -18 40 -21 0 -42 18 -42 37 0 18 29 16 36 -2 9 -23 24 -18 24 9 0 28 -8 35 -44 38 -29 3 -34 13 -11 22 11 4 13 14 9 36 -6 28 -3 32 25 43 36 13 41 27 10 27 -18 0 -20 4 -15 25 9 34 -21 34 -34 0 -11 -29 -16 -30 -36 -10 -14 13 -14 16 0 21 9 3 16 12 16 20 0 17 34 19 160 9 19 -1 41 3 49 9 11 8 13 8 7 -1 -4 -7 -2 -13 3 -13 6 0 10 -5 8 -11 -1 -6 4 -14 12 -17 8 -3 11 0 7 7 -4 6 -2 11 4 11 6 0 8 4 5 10 -10 17 32 11 46 -6 10 -13 10 -17 -1 -24 -7 -4 -19 -6 -26 -3 -6 2 -15 0 -19 -6 -4 -8 -13 -7 -28 1 -39 22 -116 -6 -136 -48 -26 -57 -4 -85 59 -78 48 5 62 12 55 25 -11 18 5 79 20 79 18 0 18 -1 1 -34 -16 -32 -10 -68 12 -64 8 2 22 22 29 44 9 26 21 44 34 47 18 5 20 2 14 -26 -4 -18 -9 -40 -12 -50 -4 -14 0 -18 13 -15 18 3 25 27 27 94 1 30 5 38 13 30 6 -6 10 -27 8 -46 -5 -50 24 -105 56 -105 16 0 25 -6 25 -15 0 -16 -27 -18 -57 -5 -27 11 -22 -12 6 -30 55 -36 114 27 63 67 -17 14 -18 18 -6 18 9 0 24 16 35 35 18 34 18 37 1 66 -9 17 -15 35 -12 40 4 5 -2 6 -11 2 -11 -4 -15 -3 -11 4 5 7 0 9 -13 6 -11 -3 -20 0 -20 6 0 13 31 14 82 2 21 -5 36 -5 33 -1 -10 16 348 28 470 15 58 -7 66 -10 70 -31 3 -13 7 -35 10 -49 3 -14 12 -25 22 -25 9 0 13 3 10 7 -4 3 -2 12 4 20 9 9 8 13 0 13 -6 0 -11 -4 -11 -10 0 -5 -4 -10 -10 -10 -5 0 -10 11 -10 24 0 26 21 39 46 29 13 -5 13 -8 2 -15 -9 -6 -3 -7 17 -3 28 6 29 6 12 -13 -21 -23 -22 -36 -1 -28 11 4 15 0 12 -16 -2 -14 -13 -25 -28 -29 -23 -6 -23 -7 -3 -8 12 -1 23 -4 26 -8 2 -5 2 -2 1 5 -2 6 1 12 6 12 6 0 10 -16 10 -35 0 -51 22 -116 37 -110 16 5 17 -7 2 -22 -8 -8 -6 -18 6 -37 16 -24 16 -26 1 -20 -9 3 -16 12 -16 20 0 8 -4 14 -10 14 -5 0 -10 -7 -10 -15 0 -8 -7 -15 -16 -15 -13 0 -14 3 -5 14 9 11 7 15 -9 19 -11 3 -20 1 -20 -4 0 -5 -7 -9 -15 -9 -8 0 -15 -9 -15 -19 0 -19 20 -19 765 -20 l765 -2 0 540 c0 316 -4 543 -10 546 -5 3 -14 -3 -20 -14 -6 -12 -16 -18 -25 -15 -8 4 -15 1 -15 -5 0 -6 -6 -8 -14 -5 -7 3 -16 -2 -20 -11 -3 -9 -9 -14 -14 -11 -4 2 -17 -8 -27 -24 -11 -16 -30 -35 -42 -41 -13 -7 -23 -19 -23 -28 -1 -14 -2 -14 -14 2 -14 19 -36 23 -36 7 0 -5 -4 -10 -8 -10 -4 0 -5 28 -2 62 3 35 5 88 4 118 -1 53 8 80 28 80 5 0 6 -6 1 -12 -13 -23 -16 -108 -3 -108 7 0 10 8 7 20 -3 11 -2 20 3 20 4 0 10 7 13 14 4 11 1 13 -11 10 -10 -4 -13 -3 -6 3 6 4 13 15 16 23 4 10 8 6 13 -12 9 -34 25 -37 25 -4 0 13 3 31 6 40 7 18 34 22 34 5 0 -6 8 -8 19 -4 10 3 31 0 45 -7 23 -10 24 -13 11 -20 -8 -5 -13 -13 -10 -19 7 -10 -12 -32 -36 -41 -9 -4 -19 -15 -21 -26 -4 -15 -2 -19 8 -15 8 3 14 11 14 19 0 8 5 14 12 14 7 0 22 12 34 27 20 25 25 26 43 15 l21 -12 0 419 c0 389 -1 419 -17 427 -10 4 -21 6 -25 6 -5 -1 -8 3 -8 9 0 6 -6 9 -14 6 -8 -3 -17 -3 -20 0 -9 9 -66 12 -66 3 0 -10 -31 -18 -47 -13 -9 3 -6 17 12 48 60 109 108 167 147 180 23 8 23 20 -1 44 -11 11 -24 15 -31 11 -7 -4 -20 -6 -30 -3 -9 3 -24 -3 -34 -12 -14 -15 -16 -15 -16 -1 0 14 -3 14 -19 -2 -11 -9 -26 -22 -33 -28 -30 -26 -49 -58 -88 -149 l-13 -30 -8 45 c-4 25 -10 61 -14 80 -4 19 -10 58 -15 85 -4 28 -8 44 -9 38 0 -7 -10 -13 -21 -13 -11 0 -20 -7 -20 -16 0 -8 -4 -12 -10 -9 -6 3 -10 -2 -10 -12 0 -10 -11 -40 -25 -68 -22 -42 -25 -60 -22 -115 3 -36 10 -78 16 -95 21 -52 53 -175 48 -188 -2 -7 -10 12 -17 42 -7 30 -23 81 -36 114 -13 33 -21 63 -18 68 2 4 -11 30 -29 56 -19 26 -44 66 -55 89 -11 22 -27 46 -35 52 -12 10 -16 8 -20 -15 -4 -20 2 -37 20 -61 14 -18 22 -40 19 -48 -3 -9 -1 -24 5 -35 10 -19 9 -20 -13 -9 -18 10 -16 5 11 -24 19 -20 30 -36 25 -36 -6 0 -15 5 -22 12 -9 9 -12 9 -12 1 0 -7 5 -15 10 -18 6 -3 10 -12 10 -18 0 -8 -3 -8 -9 1 -6 10 -10 10 -21 -3 -8 -10 -9 -15 -1 -15 6 0 11 -5 11 -11 0 -6 10 -19 23 -29 29 -24 31 -67 3 -66 -11 1 -26 12 -33 26 -6 13 -21 28 -33 32 -11 4 -26 21 -31 38 -11 31 -33 43 -23 12 3 -9 -4 -2 -16 16 -23 34 -36 42 -26 17 5 -13 2 -13 -19 1 -23 15 -30 13 -26 -9 1 -5 -3 -6 -8 -2 -6 3 -19 -3 -31 -15 -11 -11 -23 -20 -26 -20 -11 0 -33 -28 -26 -34 3 -4 -1 -4 -9 -1 -9 3 -23 -3 -35 -16 l-19 -22 23 12 c13 7 26 10 30 7 3 -3 0 -6 -6 -6 -6 0 -17 -13 -25 -28 -10 -22 -11 -30 -1 -39 6 -7 15 -9 20 -5 4 4 4 1 0 -6 -10 -16 -16 -14 -58 20 -18 15 -73 59 -123 99 -49 40 -99 82 -111 93 -11 12 -42 39 -69 61 -109 89 -119 100 -107 121 15 29 84 60 177 80 180 38 193 45 311 157 140 131 204 198 204 212 0 6 11 22 25 35 14 13 25 32 25 42 0 39 -70 6 -84 -40 -4 -12 -13 -22 -20 -22 -14 0 -15 62 -1 93 6 16 4 18 -16 15 -13 -2 -23 -9 -22 -16 2 -6 -1 -12 -5 -12 -5 0 -14 -11 -20 -25 -11 -23 -10 -25 16 -25 26 0 27 -2 23 -47 -3 -50 -14 -65 -38 -56 -8 3 -11 13 -8 27 6 19 5 20 -8 4 -19 -24 -24 -23 -29 6 -4 22 -2 24 23 21 21 -3 26 0 22 12 -5 12 -7 12 -15 1 -8 -10 -11 -11 -15 0 -4 10 -8 10 -19 1 -18 -15 -18 -39 0 -65 9 -12 11 -26 6 -33 -5 -10 -10 -4 -15 18 -10 45 -28 39 -23 -9 2 -26 -1 -40 -8 -40 -7 0 -15 6 -17 13 -4 9 -7 9 -15 -1 -5 -7 -20 -14 -33 -14 -29 -2 -49 -16 -49 -34 0 -8 -9 -23 -20 -34 -11 -11 -20 -16 -20 -11 0 5 7 17 16 25 8 9 12 16 7 16 -14 -1 -43 -27 -43 -39 0 -15 -17 -14 -23 2 -4 7 -6 6 -6 -5 -1 -9 4 -18 10 -20 19 -6 -3 -39 -25 -36 -11 1 -21 -1 -21 -4 0 -11 -39 -37 -48 -31 -4 2 -5 9 -2 14 4 5 -1 12 -11 16 -11 4 -23 -1 -35 -15 -24 -31 -35 -27 -14 4 9 14 15 27 13 29 -6 6 -59 -45 -55 -53 3 -4 -5 -7 -18 -7 -18 0 -21 3 -14 17 13 24 12 26 -14 24 -18 -1 -23 -6 -19 -20 3 -12 1 -17 -6 -12 -6 3 -16 -3 -22 -14 -6 -11 -17 -20 -25 -20 -8 0 -15 -5 -15 -11 0 -6 -7 -9 -15 -5 -9 3 -15 0 -15 -9 0 -20 -17 -27 -17 -7 0 9 6 25 15 34 18 22 27 120 13 147 -25 45 -98 33 -167 -28 -65 -56 -114 -94 -174 -131 -30 -19 -77 -52 -105 -73 -27 -22 -51 -35 -53 -29 -5 17 -42 0 -42 -20 0 -10 9 -38 20 -61 18 -40 19 -41 1 -19 -11 12 -22 22 -25 22 -14 0 -4 -24 16 -41 11 -11 18 -22 14 -27 -4 -4 -19 6 -32 21 -15 18 -24 23 -24 13 0 -8 14 -26 30 -39 28 -24 42 -45 21 -32 -5 3 -12 1 -16 -4 -9 -16 -36 0 -47 28 -10 22 -12 23 -16 7 -2 -12 10 -31 37 -57 48 -46 37 -53 -13 -8 l-35 30 3 -68 c1 -43 9 -81 20 -103 10 -19 26 -50 36 -69 9 -19 28 -40 41 -48 23 -13 23 -14 -14 -10 -35 3 -38 1 -32 -17 4 -12 8 -31 9 -43 0 -11 4 -19 9 -16 4 2 22 -6 39 -19 18 -13 48 -28 68 -34 30 -9 38 -8 54 7 10 10 22 16 26 14 4 -3 25 11 45 30 37 33 55 37 55 12 0 -9 -2 -9 -8 0 -5 9 -12 1 -21 -23 -7 -21 -18 -33 -25 -31 -12 5 -26 -11 -51 -58 -28 -50 -41 -71 -54 -88 -8 -9 -12 -20 -9 -23 7 -6 59 70 84 121 9 20 19 34 21 31 9 -9 -31 -110 -49 -127 -24 -21 -23 -28 3 -26 14 1 27 13 35 32 16 37 18 20 3 -24 -10 -29 -15 -32 -38 -26 -14 4 -69 9 -121 11 l-95 4 -3 37 c-1 28 1 34 8 23 12 -18 13 -1 1 18 -6 11 -10 10 -15 -4 -3 -9 -9 -14 -12 -11 -3 3 0 15 6 27 9 17 9 21 0 15 -9 -5 -10 -1 -5 14 3 11 2 21 -3 21 -5 0 -13 9 -18 20 -9 20 -9 20 -23 -2 -13 -21 -13 -22 2 -9 20 16 22 3 3 -22 -10 -13 -21 -15 -45 -11 -20 4 -31 3 -31 -5 0 -6 9 -11 19 -11 11 0 22 -4 25 -9 13 -21 -9 -40 -65 -55 -32 -10 -59 -21 -59 -25 0 -4 -7 -8 -15 -8 -11 0 -12 3 -3 14 8 10 7 17 -6 26 -21 16 -36 157 -17 157 20 0 5 138 -35 315 -10 44 -20 82 -24 85 -3 3 -6 28 -6 55 -1 28 -4 82 -9 121 -8 77 8 231 28 273 16 34 58 56 152 80 44 12 111 36 150 55 50 25 73 32 82 24 7 -6 10 -14 7 -19 -3 -5 -2 -8 3 -7 14 5 55 -30 49 -41 -4 -6 -1 -9 6 -6 17 7 102 -73 103 -97 1 -10 -2 -18 -6 -18 -4 0 -9 -7 -12 -14 -4 -11 -1 -13 11 -9 9 4 20 11 23 16 4 5 15 5 28 -2 17 -10 20 -9 15 4 -4 8 -1 15 6 15 9 0 9 4 -1 18 -7 9 -9 14 -4 9 4 -4 19 3 32 15 22 21 23 21 23 2 0 -11 -5 -25 -11 -31 -7 -7 4 -5 23 4 30 14 35 20 32 43 -3 18 7 47 33 91 31 53 37 73 37 119 0 70 -28 119 -87 150 -35 19 -51 22 -90 16 -54 -8 -117 -55 -117 -87 0 -11 -7 -36 -15 -56 -14 -33 -14 -41 1 -85 8 -26 20 -48 25 -48 5 0 9 -8 9 -18 0 -10 5 -23 12 -30 12 -12 20 -42 11 -42 -2 0 -37 32 -78 71 -74 71 -74 71 -60 103 21 51 63 207 69 261 5 43 11 54 43 80 66 52 113 104 113 123 0 11 7 25 16 32 8 8 23 30 32 49 9 20 18 40 20 45 9 17 -44 -7 -75 -35 -21 -18 -39 -26 -50 -22 -10 4 -14 2 -10 -4 4 -6 1 -14 -5 -16 -10 -4 -9 -8 2 -16 12 -9 12 -11 -3 -17 -9 -3 -14 -10 -11 -16 3 -5 13 -7 21 -4 8 3 11 1 8 -4 -3 -6 -13 -10 -21 -10 -8 0 -14 -7 -14 -15 0 -8 -6 -15 -13 -15 -7 0 -21 -11 -31 -25 -11 -14 -25 -24 -32 -21 -7 3 -15 -2 -18 -10 -5 -12 -8 -13 -20 -2 -12 11 -11 17 7 42 14 20 17 31 9 34 -7 2 -12 8 -12 13 0 6 4 8 9 4 5 -3 13 0 17 6 4 8 3 9 -4 5 -15 -9 -15 -1 -2 25 6 11 21 19 35 19 20 0 26 7 35 40 11 41 7 60 -11 60 -13 0 -48 -41 -49 -56 0 -15 -29 -72 -39 -79 -5 -2 -14 -26 -20 -52 -7 -27 -17 -57 -23 -68 -52 -94 -77 -162 -92 -243 -9 -51 -14 -97 -11 -102 3 -6 -1 -7 -9 -4 -11 4 -14 14 -11 33 4 18 3 21 -3 8 -4 -10 -11 -18 -15 -17 -5 0 -17 -9 -27 -22 -17 -20 -21 -21 -30 -8 -8 12 -10 10 -8 -9 3 -27 -36 -50 -48 -28 -4 7 -4 9 1 5 11 -11 35 11 35 32 0 10 7 23 15 30 13 11 13 14 0 27 -8 8 -23 12 -34 8 -23 -7 -71 -60 -71 -79 0 -7 -10 -16 -21 -19 -13 -4 -19 -11 -16 -20 4 -10 -3 -12 -27 -9 -17 3 -37 9 -43 14 -9 7 -13 7 -13 -1 0 -6 5 -11 10 -11 18 0 11 -14 -29 -59 -22 -25 -38 -48 -35 -53 3 -4 -5 -21 -17 -38 -13 -16 -20 -33 -16 -37 4 -3 7 -1 7 5 0 7 6 12 13 12 6 0 -1 -12 -16 -25 -15 -14 -23 -25 -17 -25 6 0 8 -5 5 -10 -4 -6 -11 -8 -16 -5 -5 4 -9 2 -9 -4 0 -5 4 -12 9 -15 16 -10 36 4 50 34 7 17 26 37 42 45 16 9 29 21 29 27 0 6 2 9 5 7 2 -3 -1 -22 -8 -44 -10 -34 -12 -36 -17 -15 l-5 23 -13 -27 c-7 -15 -8 -25 -3 -22 12 8 20 -53 11 -85 -5 -17 -4 -31 3 -38 9 -9 9 -14 -1 -20 -7 -4 -10 -15 -6 -24 13 -34 -6 -16 -22 21 -11 26 -12 42 -5 54 7 12 6 18 -4 22 -10 3 -12 0 -9 -12 3 -11 -1 -9 -12 5 -30 41 -104 20 -104 -29 0 -18 -17 -54 -42 -91 l-42 -62 41 35 c23 19 44 43 48 53 3 9 14 17 23 17 10 0 13 -3 7 -8 -5 -4 -21 -23 -34 -42 l-24 -35 35 33 c32 30 48 33 48 8 0 -6 -10 -16 -22 -21 -12 -6 -23 -17 -26 -25 -2 -11 -1 -12 5 -3 7 9 14 7 27 -9 15 -17 15 -20 3 -15 -11 4 -17 -2 -22 -24 -4 -16 -11 -29 -17 -29 -6 0 -8 7 -4 15 8 22 -2 18 -15 -6 -8 -15 -8 -19 0 -15 18 12 12 -10 -8 -28 -10 -9 -25 -14 -34 -11 -8 4 -18 2 -22 -4 -4 -7 0 -8 11 -4 33 13 3 -17 -39 -39 -30 -15 -57 -21 -96 -19 -47 2 -58 -2 -82 -25 -37 -35 -36 -42 1 -36 21 3 32 0 36 -12 6 -16 24 -13 24 5 0 6 -5 7 -11 3 -7 -4 -10 -1 -7 7 3 8 16 14 29 14 21 0 24 -5 26 -38 1 -22 -2 -35 -7 -32 -6 4 -10 -3 -10 -14 0 -12 -7 -21 -16 -21 -8 0 -13 3 -11 8 3 4 -10 7 -29 7 -22 0 -34 -5 -34 -14 0 -9 9 -12 30 -9 23 4 30 1 30 -13 0 -16 -19 -29 -41 -29 -30 0 -44 100 -39 270 1 36 -1 87 -6 115 -7 47 -7 49 10 32 27 -26 28 -21 6 23 -24 47 -25 57 -5 40 20 -16 20 4 2 40 -8 15 -10 35 -6 50 4 14 7 34 8 45 1 16 -1 17 -9 5 -18 -28 -13 72 14 272 6 38 10 43 71 77 46 26 55 36 55 60 l0 28 83 -1 c68 -1 82 -4 80 -16 -2 -10 5 -16 17 -16 22 0 25 7 10 22 -13 13 10 64 30 64 28 0 117 48 144 76 14 16 26 37 26 47 0 11 37 -19 106 -88 59 -58 116 -111 128 -117 20 -11 20 -10 6 7 -8 10 -36 39 -62 63 -26 24 -45 48 -42 53 3 5 1 8 -4 7 -5 -2 -76 61 -156 140 -87 85 -151 140 -158 136 -6 -4 -8 -3 -5 3 3 5 -26 42 -66 81 -297 295 -346 346 -344 355 1 6 -5 11 -13 12 -8 0 -82 66 -165 147 -82 81 -155 148 -162 148 -6 0 130 -140 302 -312 173 -172 311 -314 307 -317 -4 -4 -28 -35 -54 -71 -25 -36 -72 -88 -104 -117 -135 -119 -142 -130 -117 -180 18 -38 76 -71 144 -81 38 -5 55 -12 57 -24 2 -13 -6 -19 -35 -24 -21 -3 -54 -17 -73 -29 -62 -41 -210 -73 -210 -45 0 17 -28 11 -39 -7 -8 -13 -10 -14 -11 -4 0 11 -3 10 -13 -3 -11 -15 -17 -16 -35 -7 -27 14 -42 8 -69 -32 -29 -42 -29 -52 2 -89 18 -21 25 -41 25 -72 0 -48 22 -86 51 -86 24 0 24 -12 1 -33 -22 -20 -38 -22 -46 -4 -12 24 4 -159 17 -195 18 -51 54 -88 87 -88 50 0 91 48 132 155 4 11 5 -5 2 -35 -6 -62 -22 -112 -34 -105 -5 3 -12 0 -16 -6 -5 -8 -3 -9 6 -4 10 6 12 4 6 -11 -7 -16 -30 -169 -55 -356 -11 -84 11 -128 71 -143 26 -7 26 -6 32 57 6 75 2 263 -8 298 -3 14 -4 19 0 13 8 -18 24 -16 40 4 17 23 18 0 1 -27 -8 -15 -9 -23 -1 -28 6 -4 16 -43 23 -87 7 -44 18 -100 24 -125 6 -25 10 -49 9 -54 -2 -5 4 -4 12 3 8 7 18 22 22 33 4 13 12 18 25 15 11 -3 19 0 19 6 0 8 4 7 9 -2 5 -7 14 -10 20 -6 7 4 24 -2 39 -12 15 -10 43 -23 61 -28 28 -8 46 -27 92 -95 46 -68 55 -87 43 -93 -8 -4 -20 -5 -27 -1 -6 4 -9 4 -5 -1 4 -4 -2 -16 -14 -26 -27 -25 -36 -24 -14 0 11 12 14 21 7 26 -6 3 -11 1 -11 -5 0 -7 -6 -5 -15 4 -19 19 -19 30 -1 23 8 -3 20 0 26 8 8 10 7 13 -2 12 -41 -1 -49 3 -43 25 6 17 4 20 -9 15 -13 -5 -15 -2 -10 21 4 19 3 23 -4 13 -6 -8 -17 -11 -26 -8 -12 5 -16 0 -16 -16 -1 -21 -1 -21 -15 3 -19 34 -19 7 0 -30 9 -17 11 -30 6 -30 -5 0 -13 9 -16 20 -3 11 -12 20 -20 20 -7 0 -20 3 -28 6 -11 4 -13 -1 -10 -19 6 -31 -5 -37 -37 -20 l-25 15 28 -6 c20 -5 27 -2 27 8 0 21 -18 30 -34 16 -11 -8 -15 -8 -19 2 -11 26 -13 -68 -3 -99 9 -28 50 -40 72 -22 13 11 17 10 25 -4 6 -9 15 -17 22 -17 7 0 6 4 -3 10 -8 5 -11 12 -7 17 10 10 28 -18 22 -34 -3 -7 -8 -20 -11 -28 -4 -10 0 -15 10 -15 9 0 16 5 16 10 0 6 4 10 9 10 5 0 -2 -25 -14 -57 -13 -31 -21 -62 -19 -68 4 -9 -19 -13 -83 -14 -48 -1 -106 -5 -128 -9 l-40 -7 2 -52 c2 -51 2 -52 -17 -35 -24 19 -26 42 -5 42 8 0 12 6 9 14 -4 11 -12 13 -31 5 -32 -12 -46 -12 -38 1 4 6 12 8 18 4 7 -3 4 1 -7 10 -13 11 -24 12 -37 6 -24 -13 -39 -12 -16 1 22 13 22 30 0 22 -15 -6 -16 -5 -3 9 8 9 20 13 25 10 6 -2 4 1 -2 9 -19 19 -16 59 3 59 9 0 14 6 11 13 -2 6 -11 11 -18 9 -10 -3 -9 1 2 15 16 18 32 63 22 63 -3 0 -15 -10 -26 -22 l-19 -23 7 25 7 25 -19 -25 c-11 -14 -28 -46 -38 -72 -10 -29 -22 -45 -30 -42 -7 3 -15 -2 -18 -10 -5 -13 -12 -14 -33 -6 -22 9 -25 8 -21 -4 4 -9 2 -18 -2 -21 -5 -2 -11 5 -14 16 -4 16 -11 19 -29 14 -21 -6 -22 -5 -5 8 17 14 16 15 -7 21 -16 4 -24 13 -24 28 0 13 -3 41 -7 63 -4 28 0 56 14 95 10 30 17 58 14 63 -8 13 -17 -2 -37 -56 -12 -31 -23 -47 -31 -43 -7 2 -16 -2 -19 -11 -11 -28 -16 -7 -6 26 9 32 9 33 -9 17 -17 -15 -19 -15 -24 -1 -4 8 -11 14 -16 13 -5 -2 -17 6 -26 17 -9 11 -14 14 -10 8 3 -7 1 -13 -4 -13 -6 0 -11 -7 -11 -15 0 -8 -4 -15 -10 -15 -5 0 -10 4 -10 8 0 5 -7 17 -15 28 -13 18 -14 17 -9 -10 3 -16 2 -36 -1 -44 -5 -13 -8 -12 -20 4 -14 18 -14 18 -16 -6 -1 -20 -3 -18 -9 10 l-7 35 -2 -32 c0 -17 3 -35 9 -38 5 -3 15 -16 22 -28 10 -19 9 -20 -4 -9 -9 7 -18 9 -20 5 -3 -4 -3 -2 -2 5 2 6 -3 12 -12 12 -13 0 -14 25 -9 198 3 108 7 287 10 397 3 110 7 292 10 405 6 206 19 723 31 1228 l7 272 -51 0 c-46 0 -52 -3 -56 -22 -3 -13 -7 -167 -11 -343 -14 -772 -51 -2118 -64 -2319 -1 -5 -9 -2 -18 5 -15 12 -16 12 -9 -6 4 -11 -9 -3 -29 20 l-35 40 4 -30 c5 -30 5 -30 -12 -9 -22 26 -55 44 -79 43 -15 0 -14 -2 4 -9 15 -6 21 -15 17 -25 -4 -9 -2 -15 2 -13 5 2 22 -7 38 -19 16 -13 23 -23 14 -23 -8 0 -19 5 -26 12 -8 8 -16 5 -31 -13 -17 -21 -18 -26 -5 -40 8 -8 14 -22 14 -30 0 -9 9 -25 20 -37 12 -12 16 -22 10 -22 -6 0 -13 7 -16 15 -7 18 -30 20 -37 3 -3 -7 -6 -3 -6 10 -1 25 -1 25 -37 12 -21 -8 -29 -8 -36 2 -5 9 -8 5 -9 -12 l-1 -25 -7 25 c-4 14 -13 25 -21 25 -8 0 -20 11 -26 23 -12 25 -34 50 -34 40 0 -4 4 -18 10 -32 8 -23 7 -26 -13 -26 -13 0 -29 6 -36 13 -11 10 -11 8 -2 -10 18 -35 13 -37 -15 -3 -15 17 -29 29 -32 26 -3 -3 1 -12 8 -21 7 -8 9 -15 5 -15 -4 0 -2 -7 5 -15 8 -9 9 -15 2 -15 -6 0 -14 5 -17 10 -9 14 -21 12 -39 -5 -9 -9 -17 -11 -21 -5 -3 5 -11 10 -16 10 -13 0 -7 -31 9 -48 6 -7 12 -19 12 -25 -1 -12 -33 22 -49 51 -5 8 -14 12 -20 8 -8 -5 -2 -19 19 -44 16 -20 30 -42 30 -49 0 -7 7 -13 15 -13 10 0 12 6 8 18 -6 15 -5 15 10 4 12 -10 13 -17 5 -26 -12 -12 -48 -16 -48 -5 0 4 -9 9 -20 12 -20 5 -29 37 -9 37 5 0 7 5 4 10 -3 6 -11 10 -16 10 -6 0 -8 -4 -5 -9 3 -5 -1 -11 -9 -15 -8 -3 -15 -1 -15 4 0 6 -7 10 -16 10 -8 0 -12 5 -9 10 4 7 -2 9 -18 5 -14 -4 -28 -2 -31 4 -10 15 -23 14 -29 -2 -3 -7 3 -13 14 -14 19 -2 68 -33 69 -44 0 -13 -29 -18 -57 -10 -15 5 -27 14 -25 20 1 7 -2 10 -7 6 -16 -9 -83 23 -75 36 4 8 3 9 -4 5 -11 -7 -6 -36 7 -36 3 0 17 -9 31 -20 l25 -20 -29 10 c-24 9 -27 8 -22 -6 5 -13 0 -15 -27 -10 -17 3 -26 3 -18 0 11 -5 8 -10 -10 -21 -18 -11 -19 -13 -4 -8 27 9 25 9 64 0 31 -7 33 -9 16 -22 -16 -11 -17 -13 -3 -13 9 0 20 -5 23 -10 4 -6 -5 -10 -24 -8 -28 2 -36 9 -32 31 2 13 -30 20 -41 9 -8 -8 -15 -7 -23 5 -21 29 -66 4 -95 -53 -13 -27 -29 -52 -35 -56 -6 -5 -4 -8 5 -9 8 0 2 -5 -13 -9 -16 -5 -35 -6 -42 -4 -7 3 -26 -1 -42 -9 -16 -8 -38 -11 -53 -7 -14 4 -38 2 -53 -3 -20 -6 -32 -6 -40 2 -6 6 -25 11 -43 11 -47 0 -53 27 -8 36 23 4 33 11 30 19 -3 9 9 16 37 20 82 14 254 88 323 140 21 16 39 22 54 18 16 -4 21 -3 16 6 -4 6 -13 9 -19 5 -12 -5 -5 1 44 41 25 21 94 96 142 154 26 31 29 32 46 17 38 -34 65 -16 76 52 5 32 11 42 26 42 34 0 41 33 18 96 -14 40 -19 76 -16 111 3 45 11 64 52 119 5 7 6 16 2 20 -9 10 -89 -22 -115 -47 -17 -15 -22 -16 -22 -5 0 8 11 23 25 34 52 41 20 55 -52 23 -49 -23 -73 -62 -73 -121 0 -22 -4 -40 -9 -40 -5 0 -13 -9 -16 -20 -11 -36 -23 -21 -14 18 5 20 9 242 9 494 l0 456 23 -2 c33 -4 47 -14 48 -34 0 -9 7 -1 14 18 7 19 14 29 14 22 1 -7 5 -11 10 -8 5 3 12 -16 16 -43 9 -65 31 -76 26 -13 -3 39 -1 43 12 31 8 -8 12 -21 9 -29 -4 -11 -1 -10 12 3 18 17 19 17 33 -3 9 -13 21 -19 30 -16 9 4 23 -2 33 -14 9 -11 20 -17 23 -14 3 4 13 -10 21 -29 8 -20 26 -45 39 -57 17 -15 23 -28 19 -43 -3 -12 -1 -19 3 -14 11 9 45 -79 45 -115 0 -16 5 -28 10 -28 6 0 10 5 10 11 0 5 5 7 10 4 6 -3 10 -16 10 -28 0 -12 5 -29 11 -37 8 -11 9 -5 4 25 -18 109 -18 104 4 63 20 -35 41 -57 41 -42 0 3 -14 33 -31 65 -18 33 -30 62 -27 65 3 2 19 -7 36 -21 l30 -25 -2 24 c0 13 -4 24 -8 23 -10 -3 -109 95 -103 101 2 3 11 -1 19 -7 8 -7 20 -10 26 -6 6 4 19 -4 29 -17 11 -13 22 -20 25 -17 3 3 -10 23 -29 44 -20 21 -39 35 -42 31 -4 -4 -1 -11 7 -16 8 -5 11 -12 7 -16 -9 -9 -39 16 -34 30 2 6 -5 19 -15 30 -10 11 -21 34 -24 53 -3 18 -12 33 -19 33 -14 0 -29 29 -20 38 3 3 5 0 5 -6 0 -7 4 -12 10 -12 5 0 7 6 4 13 -8 21 -138 82 -154 72 -4 -2 -19 4 -33 15 -14 11 -32 20 -41 20 -8 0 -25 4 -38 9 -13 5 -42 14 -65 20 l-43 12 0 70 c0 44 4 68 10 64 13 -8 13 -3 -1 31 -11 31 -4 78 11 69 6 -3 10 -17 10 -31 0 -14 4 -22 10 -19 5 3 19 -10 31 -29 24 -42 43 -48 29 -10 -16 41 -12 47 15 18 14 -15 25 -33 25 -40 0 -8 4 -14 9 -14 6 0 20 -18 32 -40 12 -21 26 -37 30 -35 10 7 -17 104 -34 124 -9 9 -17 25 -19 36 -1 11 -20 36 -41 56 -27 26 -36 42 -31 55 4 13 3 15 -3 7 -14 -20 -40 5 -52 52 -9 36 -9 38 4 21 8 -11 15 -25 15 -32 0 -24 29 -22 45 3 10 14 13 23 7 19 -6 -3 -10 11 -10 35 -1 27 3 39 11 36 7 -2 12 -12 13 -23 2 -39 4 -45 14 -39 7 4 9 -2 5 -18 -4 -14 -2 -28 4 -31 6 -4 9 -1 5 7 -3 8 0 18 6 22 6 4 8 15 5 26 -4 11 -2 19 4 19 6 0 11 -5 11 -12 0 -6 3 -9 6 -6 3 4 0 16 -6 28 -19 36 14 44 108 24 21 -4 41 -6 46 -5 5 1 12 -2 15 -6 10 -13 69 -53 79 -53 6 0 27 -15 48 -34 21 -19 41 -30 44 -25 7 11 50 -26 50 -43 0 -6 3 -9 6 -5 9 9 -44 97 -59 97 -7 0 -25 14 -41 30 -16 17 -35 30 -43 30 -7 0 -13 5 -13 10 0 6 -6 10 -14 10 -8 0 -16 7 -19 14 -4 11 -1 13 11 10 14 -5 14 -4 2 4 -8 7 -49 9 -104 6 -76 -5 -87 -4 -75 8 8 8 22 17 32 21 10 4 15 12 12 18 -5 8 -10 8 -18 0 -6 -6 -22 -11 -35 -11 -13 0 -20 -4 -17 -10 3 -5 1 -10 -4 -10 -6 0 -11 5 -11 11 0 6 -9 8 -20 4 -14 -4 -20 -2 -20 9 0 10 6 13 15 10 11 -5 13 -2 9 10 -3 9 -1 16 4 16 20 0 19 35 -2 70 -16 29 -17 32 -3 21 39 -32 6 34 -37 72 l-31 28 34 -16 c22 -11 31 -12 25 -4 -5 9 -2 10 12 5 45 -18 47 -16 9 8 -22 14 -53 32 -69 39 -18 9 -24 16 -15 19 8 3 1 10 -18 18 -17 8 -29 18 -26 23 3 5 -1 14 -8 19 -10 6 0 8 29 4 23 -4 42 -2 42 3 0 13 -26 21 -72 21 -33 0 -37 2 -26 13 7 8 20 16 28 20 11 4 10 6 -5 7 -11 1 -29 1 -40 0 -14 -1 -17 1 -9 12 6 7 10 18 9 23 -1 16 -47 65 -61 65 -6 0 -17 7 -24 15 -7 8 -16 12 -21 9 -5 -3 1 -14 13 -24 26 -22 13 -26 -29 -8 -15 6 -34 10 -42 9 -9 -2 -12 3 -7 14 3 9 6 19 6 21 0 2 11 4 25 4 14 0 25 5 25 10 0 6 -4 10 -9 10 -21 0 -78 -25 -98 -42 -21 -20 -21 -20 -28 2 -5 15 -2 26 6 31 12 7 12 9 0 9 -8 0 -11 3 -7 8 4 4 12 7 18 7 6 0 12 8 14 18 1 9 -2 17 -8 17 -7 0 -6 5 1 14 10 11 8 17 -6 25 -32 18 -4 12 40 -10 l42 -20 -25 21 c-14 11 -50 34 -80 50 -30 16 -47 29 -38 30 9 0 20 5 23 10 4 7 -367 10 -1107 10 -1096 -1 -1114 -1 -1148 -21z m2140 -90 c0 -5 -7 -6 -15 -3 -8 4 -15 13 -15 21 0 13 3 13 15 3 8 -7 15 -16 15 -21z m40 -1 c0 -15 -15 -8 -28 12 -12 19 -11 20 8 8 11 -7 20 -16 20 -20z m47 -70 c15 -24 30 -45 33 -48 3 -3 6 -10 7 -16 2 -13 -141 -155 -174 -172 -27 -15 -33 0 -29 73 3 48 -16 95 -49 117 -6 5 -4 8 6 8 9 0 29 -20 44 -45 16 -24 30 -43 32 -41 7 6 -39 96 -48 96 -5 0 -4 9 3 20 7 11 20 20 29 20 8 0 19 3 23 7 11 12 70 10 82 -2 7 -6 14 -20 17 -31 4 -15 5 -13 6 7 0 14 -4 30 -11 37 -7 7 -9 12 -5 12 4 0 19 -19 34 -42z m-2037 -2 c0 -3 -4 -8 -10 -11 -5 -3 -10 -1 -10 4 0 6 5 11 10 11 6 0 10 -2 10 -4z m2287 -122 c-3 -3 -12 -4 -19 -1 -8 3 -5 6 6 6 11 1 17 -2 13 -5z m-1657 -144 c5 -3 -3 -25 -16 -50 l-23 -45 -1 43 c0 47 20 98 28 72 3 -8 8 -17 12 -20z m-710 -29 c15 -28 13 -34 -10 -28 -11 3 -20 0 -20 -6 0 -8 -3 -8 -11 0 -8 8 -7 17 3 32 16 26 24 26 38 2z m30 4 c0 -8 -4 -15 -10 -15 -5 0 -7 7 -4 15 4 8 8 15 10 15 2 0 4 -7 4 -15z m1838 -50 c-3 -3 -9 2 -12 12 -6 14 -5 15 5 6 7 -7 10 -15 7 -18z m493 -17 c-11 -11 -13 -10 -7 0 4 7 2 21 -5 30 -12 15 -11 15 6 0 16 -15 17 -20 6 -30z m-2341 12 c0 -5 -8 -10 -17 -10 -15 0 -16 2 -3 10 19 12 20 12 20 0z m1825 -18 c-3 -3 -11 0 -18 7 -9 10 -8 11 6 5 10 -3 15 -9 12 -12z m535 -55 c-3 -2 -20 15 -39 37 l-35 41 39 -37 c22 -21 37 -39 35 -41z m18 37 c18 11 91 -80 103 -129 7 -26 18 -49 25 -52 48 -18 -17 -39 -186 -58 -69 -7 -168 -23 -220 -35 -52 -12 -108 -23 -125 -25 -16 -1 -38 -6 -48 -10 -10 -4 -19 -6 -20 -4 -25 46 -34 69 -27 69 5 0 12 -9 15 -20 4 -11 11 -18 16 -15 5 4 9 1 9 -4 0 -6 5 -11 11 -11 6 0 8 7 5 15 -9 24 22 30 47 9 22 -19 22 -19 5 2 -21 24 -23 35 -5 30 6 -1 9 -1 5 1 -5 3 -8 10 -8 18 0 7 -7 18 -15 25 -8 7 -15 16 -15 21 0 4 15 -5 32 -22 18 -16 36 -29 40 -29 5 0 8 -5 8 -11 0 -6 7 -17 15 -25 19 -20 19 -5 0 20 -21 28 -18 42 4 22 24 -22 36 1 13 27 -17 19 -3 24 16 5 6 -6 15 -9 18 -5 4 3 -7 22 -25 42 -38 44 -41 58 -3 23 15 -14 32 -24 37 -22 6 3 24 -9 40 -26 16 -16 33 -30 38 -30 10 0 -39 69 -57 82 -22 15 7 8 35 -9 16 -10 29 -23 29 -31 0 -7 5 -10 10 -7 6 4 8 10 5 15 -3 4 -2 10 2 13 5 2 3 3 -3 1 -13 -3 -74 57 -74 71 0 6 3 6 8 0 12 -17 62 -59 62 -52 0 3 -6 12 -12 19 -7 8 -26 28 -42 46 -42 45 -24 40 29 -9 25 -23 45 -38 45 -34 0 5 8 1 18 -7 9 -8 25 -18 35 -21 22 -8 17 1 -37 68 -32 39 -34 45 -11 25 16 -14 36 -32 44 -40 9 -9 12 -10 7 -3 -15 23 -1 24 24 3 31 -27 38 -25 14 3 -11 12 -26 31 -34 42 -14 19 -14 20 6 2 12 -10 28 -15 38 -11 16 6 23 -10 9 -19 -5 -2 -2 -2 4 -1 14 4 53 -34 53 -50 0 -5 3 -7 6 -4 3 4 -2 18 -11 32 -9 14 -14 29 -11 34 3 5 -1 18 -9 28 -8 10 -14 24 -15 29 0 6 4 4 9 -4 5 -7 13 -11 19 -7z m-1451 -60 c-1 0 -17 -4 -34 -7 -32 -6 -33 -5 -33 25 0 31 0 31 21 12 22 -19 22 -19 10 6 -11 22 -10 22 13 -5 14 -16 24 -30 23 -31z m1343 14 c0 -13 -5 -9 -31 19 l-24 26 27 -19 c15 -10 28 -22 28 -26z m50 21 c0 -14 -17 -10 -23 5 -4 10 -1 13 9 9 7 -3 14 -9 14 -14z m-2226 -24 c3 -8 1 -15 -4 -15 -6 0 -10 7 -10 15 0 8 2 15 4 15 2 0 6 -7 10 -15z m191 -35 c3 -5 1 -10 -4 -10 -6 0 -11 5 -11 10 0 6 2 10 4 10 3 0 8 -4 11 -10z m66 -23 c-10 -9 -11 -8 -5 6 3 10 9 15 12 12 3 -3 0 -11 -7 -18z m4769 -66 c0 -5 -9 -11 -21 -14 -16 -4 -18 -3 -8 9 13 16 29 19 29 5z m-3191 -75 c-3 -3 -11 5 -18 17 -13 21 -12 21 5 5 10 -10 16 -20 13 -22z m-1946 -43 c-4 -10 -9 -11 -16 -4 -5 5 -7 18 -3 28 6 14 9 15 16 4 4 -8 6 -21 3 -28z m2481 -9 c3 -8 2 -12 -4 -9 -6 3 -10 10 -10 16 0 14 7 11 14 -7z m-48 -41 c-3 -6 0 -14 7 -16 7 -2 10 -7 7 -10 -11 -12 -27 9 -33 43 -6 33 -6 34 8 15 9 -11 13 -25 11 -32z m-2383 12 c-7 -21 -12 -19 -10 4 0 11 5 18 9 15 4 -3 5 -11 1 -19z m-193 -51 c-12 -32 -19 -67 -16 -76 2 -10 -1 -21 -7 -25 -7 -3 -9 -3 -5 2 4 4 3 13 -2 20 -6 7 -3 30 11 66 11 30 22 60 25 68 2 8 7 12 9 9 3 -3 -4 -31 -15 -64z m106 33 c-6 -18 -19 -46 -30 -61 -15 -23 -16 -30 -5 -37 9 -5 9 -9 3 -9 -11 0 -24 -29 -28 -59 0 -8 -6 -16 -13 -18 -9 -3 -10 4 -2 29 6 18 12 44 14 58 6 40 24 80 35 80 6 0 10 6 9 13 -3 25 1 37 15 37 11 0 12 -6 2 -33z m2385 20 c-1 -12 -15 -9 -19 4 -3 6 1 10 8 8 6 -3 11 -8 11 -12z m57 -28 c-3 -8 -7 -3 -11 10 -4 17 -3 21 5 13 5 -5 8 -16 6 -23z m-2509 -23 c-7 -20 -16 -36 -20 -36 -4 0 0 18 8 40 20 49 30 45 12 -4z m101 -11 c-6 -15 -13 -25 -17 -21 -3 3 0 17 7 31 17 32 24 26 10 -10z m373 20 c-3 -9 -8 -14 -10 -11 -3 3 -2 9 2 15 9 16 15 13 8 -4z m3787 -20 c0 -8 -4 -15 -10 -15 -5 0 -7 7 -4 15 4 8 8 15 10 15 2 0 4 -7 4 -15z m65 7 c-13 -9 -17 -32 -6 -32 5 0 12 6 14 13 3 7 6 5 6 -5 1 -10 -3 -18 -9 -18 -5 0 -7 -7 -3 -15 5 -13 2 -14 -21 -4 -19 9 -23 15 -14 20 7 4 9 11 5 15 -8 9 11 34 27 34 7 0 7 -3 1 -8z m-4110 -21 c-3 -6 -15 -16 -26 -21 -14 -8 -19 -7 -19 2 0 7 10 18 23 24 25 11 32 10 22 -5z m84 -13 c-1 -31 -1 -31 -8 -8 -5 14 -6 28 -4 33 9 15 13 6 12 -25z m119 -3 c-3 -3 -9 2 -12 12 -6 14 -5 15 5 6 7 -7 10 -15 7 -18z m672 4 c0 -11 -4 -18 -10 -14 -5 3 -7 12 -3 20 7 21 13 19 13 -6z m3127 -14 c-6 -36 -2 -41 22 -26 10 7 19 4 29 -7 7 -9 11 -11 7 -4 -7 14 -4 15 19 6 21 -8 20 -24 -1 -40 -26 -19 -69 -17 -79 4 -9 20 -14 84 -7 95 10 17 15 4 10 -28z m-3823 10 c3 -8 1 -15 -4 -15 -6 0 -10 7 -10 15 0 8 2 15 4 15 2 0 6 -7 10 -15z m-289 -61 c-22 -18 -44 -34 -50 -34 -5 1 0 9 13 19 12 11 22 23 22 28 0 10 42 31 50 25 3 -2 -13 -19 -35 -38z m264 0 c13 5 12 3 -3 -8 -10 -8 -15 -19 -12 -24 3 -6 0 -12 -7 -15 -8 -3 -14 0 -15 6 -1 7 -4 28 -7 47 -5 34 -5 34 11 12 10 -15 22 -21 33 -18z m2141 -623 c0 -403 -4 -679 -10 -712 -34 -178 -217 -354 -453 -435 -108 -38 -281 -44 -397 -15 -213 53 -396 192 -486 368 l-29 58 -5 545 c-3 300 -4 614 -2 698 l3 152 689 0 690 0 0 -659z m-1690 579 c0 -5 -2 -10 -4 -10 -3 0 -8 5 -11 10 -3 6 -1 10 4 10 6 0 11 -4 11 -10z m-450 -14 c0 -2 -7 -7 -16 -10 -8 -3 -12 -2 -9 4 6 10 25 14 25 6z m83 -33 c-7 -2 -13 -11 -13 -19 0 -9 -4 -13 -10 -9 -14 9 0 35 19 34 10 0 11 -2 4 -6z m-243 -51 c0 -21 -2 -24 -10 -12 -13 20 -13 53 0 45 6 -3 10 -18 10 -33z m600 17 c0 -6 -4 -7 -10 -4 -5 3 -10 11 -10 16 0 6 5 7 10 4 6 -3 10 -11 10 -16z m4356 5 c18 -14 18 -14 -6 -3 -31 14 -36 19 -24 19 6 0 19 -7 30 -16z m-4884 -44 c5 0 8 -10 8 -21 0 -18 -4 -16 -25 15 -14 20 -25 42 -25 49 0 7 8 0 18 -15 9 -16 20 -28 24 -28z m134 31 c-4 -5 -2 -11 3 -13 5 -1 1 -14 -10 -27 -10 -13 -19 -19 -19 -13 0 16 19 62 25 62 4 0 4 -4 1 -9z m4748 -10 c4 -5 -3 -7 -14 -4 -23 6 -26 13 -6 13 8 0 17 -4 20 -9z m-4925 -31 c4 0 9 -26 9 -57 2 -48 0 -55 -10 -39 -6 11 -12 45 -13 75 -1 31 0 48 2 39 2 -10 8 -18 12 -18z m4551 1 c0 -9 -24 -21 -42 -21 -6 0 -6 6 2 15 14 16 40 20 40 6z m1507 -17 c-3 -3 -12 -4 -19 -1 -8 3 -5 6 6 6 11 1 17 -2 13 -5z m-1527 -24 c0 -5 -5 -10 -11 -10 -5 0 -7 5 -4 10 3 6 8 10 11 10 2 0 4 -4 4 -10z m100 3 c-1 -9 -48 -56 -70 -68 -8 -5 1 10 20 33 33 39 50 51 50 35z m-4540 -43 c22 -43 26 -70 10 -70 -5 0 -10 10 -10 23 0 13 -4 27 -9 33 -11 11 -24 54 -17 54 3 0 15 -18 26 -40z m46 15 c-3 -28 -16 -47 -16 -22 0 16 10 47 15 47 2 0 2 -11 1 -25z m3521 3 c-3 -8 -6 -5 -6 6 -1 11 2 17 5 13 3 -3 4 -12 1 -19z m113 -23 c-7 -9 -6 -16 5 -25 8 -7 15 -18 15 -24 0 -6 -5 -4 -10 4 -7 11 -10 6 -9 -20 0 -30 2 -32 10 -15 7 15 8 10 4 -20 -2 -22 -5 -56 -6 -75 -1 -19 -3 -27 -6 -18 -4 16 -6 16 -29 2 -13 -9 -24 -23 -24 -30 0 -21 -37 -17 -61 7 -15 15 -20 30 -17 54 2 19 0 31 -4 29 -24 -15 10 91 43 132 5 6 29 11 54 11 34 0 42 -3 35 -12z m-3694 -41 c12 -36 9 -74 -7 -74 -5 0 -9 10 -9 23 0 12 -3 40 -7 62 -7 46 5 41 23 -11z m-157 -38 l-1 -41 -13 55 c-18 69 -18 69 0 46 8 -11 15 -38 14 -60z m4462 26 c-12 -4 -15 -29 -3 -34 4 -1 -6 -16 -21 -32 -20 -21 -26 -24 -21 -10 4 10 13 24 21 31 11 9 11 13 2 19 -7 4 -15 2 -17 -4 -2 -7 -8 -12 -14 -12 -7 0 -7 5 1 13 6 8 7 18 3 22 -4 5 -1 5 6 1 9 -5 15 -1 19 13 4 18 8 19 20 9 10 -8 11 -14 4 -16z m-4328 -75 c-11 -18 -23 8 -22 46 l1 42 13 -40 c7 -22 10 -43 8 -48z m2534 37 c-3 -3 -12 -4 -19 -1 -8 3 -5 6 6 6 11 1 17 -2 13 -5z m1723 -18 c0 -2 -7 -7 -16 -10 -8 -3 -12 -2 -9 4 6 10 25 14 25 6z m-4319 -40 c5 3 9 1 9 -5 0 -16 -21 -24 -32 -13 -6 6 -7 16 -2 23 6 10 9 10 12 1 2 -7 8 -10 13 -6z m-53 -56 c0 -9 -3 -7 -8 5 -5 11 -8 29 -8 40 0 16 2 15 8 -5 4 -14 8 -32 8 -40z m5042 20 c-19 -13 -30 -13 -30 0 0 6 10 10 23 10 18 0 19 -2 7 -10z m-5170 -42 c0 -21 -3 -29 -10 -22 -5 5 -7 19 -4 32 9 31 14 27 14 -10z m187 25 c-4 -3 -2 -12 3 -18 11 -13 -33 -79 -60 -90 -8 -3 -11 -3 -7 1 4 4 2 13 -4 20 -7 9 -6 21 6 43 8 17 18 31 20 31 11 0 4 -30 -11 -45 -9 -9 -14 -19 -10 -22 3 -4 7 -4 9 -2 2 2 13 17 25 32 11 16 18 35 15 43 -3 8 1 14 8 14 7 0 9 -3 6 -7z m-105 -49 c-2 -10 -8 -20 -13 -22 -5 -2 -9 -13 -9 -23 0 -11 -4 -18 -9 -15 -13 8 9 88 23 83 6 -2 9 -13 8 -23z m978 6 c0 -5 -2 -10 -4 -10 -3 0 -8 5 -11 10 -3 6 -1 10 4 10 6 0 11 -4 11 -10z m2808 -26 c3 -28 3 -28 -12 -9 -19 24 -21 48 -3 43 6 -3 13 -18 15 -34z m-3834 -21 c-1 -21 -9 -40 -18 -45 -9 -5 -16 -15 -16 -22 0 -8 -7 -19 -15 -26 -12 -10 -15 -9 -15 6 0 16 -2 16 -15 -3 -20 -29 -45 -19 -45 17 0 16 -4 31 -10 35 -5 3 -6 13 -2 23 5 13 9 7 18 -23 l12 -40 2 35 c2 29 3 31 8 12 11 -37 25 -30 38 18 11 43 11 44 19 18 4 -16 11 -28 17 -28 5 0 7 3 5 8 -4 7 9 52 15 52 2 0 3 -16 2 -37z m5304 -43 c6 0 15 -11 18 -26 6 -25 -15 -53 -42 -54 -6 0 -17 -12 -24 -26 -11 -20 -11 -27 -2 -33 7 -4 10 -15 6 -24 -4 -12 -1 -17 14 -17 32 0 50 -93 29 -150 -3 -8 -9 -28 -13 -45 l-8 -30 -4 38 c-2 21 2 61 7 89 7 32 8 55 1 66 -8 14 -9 13 -10 -8 0 -14 -5 -32 -11 -40 -9 -13 -10 -12 -5 2 3 10 -2 24 -10 33 -18 18 -24 18 -44 5 -13 -8 -11 -11 8 -16 13 -4 22 -14 22 -26 0 -16 -5 -19 -25 -16 -21 4 -23 3 -14 -13 5 -10 15 -16 23 -13 9 3 17 -8 24 -35 7 -30 7 -41 -2 -41 -7 0 -6 -3 2 -9 19 -11 9 -79 -14 -96 -30 -22 -37 -18 -31 20 6 39 -8 52 -63 58 -16 2 -40 13 -53 25 -12 12 -40 25 -60 29 l-38 8 60 70 c34 39 77 104 97 145 20 41 55 94 77 117 37 38 42 41 57 28 9 -8 22 -15 28 -15z m-4776 -7 c-3 -16 -7 -22 -10 -15 -4 13 4 42 11 42 2 0 2 -12 -1 -27z m-669 -15 c7 -23 1 -38 -14 -38 -5 0 -9 14 -9 30 0 35 15 40 23 8z m527 -20 c0 -5 -7 -3 -15 6 -8 8 -15 18 -15 22 0 3 7 1 15 -6 8 -7 15 -17 15 -22z m83 17 c4 -8 2 -17 -3 -20 -6 -4 -10 3 -10 14 0 25 6 27 13 6z m39 -62 c6 -7 8 -20 4 -28 -3 -8 -2 -15 2 -15 4 0 17 21 29 48 13 26 23 41 23 34 0 -23 -32 -76 -71 -117 -22 -22 -39 -46 -39 -54 0 -15 -60 68 -60 84 0 5 11 -2 24 -15 13 -14 21 -28 19 -32 -5 -9 11 -11 20 -2 7 7 -41 83 -63 101 -12 9 -12 14 -3 24 10 10 15 6 24 -19 6 -18 15 -29 20 -26 5 3 9 -2 9 -10 0 -9 4 -16 9 -16 5 0 18 -3 28 -7 16 -5 16 -4 -3 18 -32 37 -40 57 -12 32 30 -28 48 -30 23 -3 -11 13 -15 25 -10 37 8 17 8 17 13 -2 2 -11 9 -26 14 -32z m-112 -25 c0 -6 -7 -5 -15 2 -8 7 -15 17 -15 22 0 6 7 5 15 -2 8 -7 15 -17 15 -22z m-40 -23 c0 14 3 16 12 7 8 -8 8 -15 -3 -28 -9 -12 -10 -15 -1 -10 7 4 12 2 12 -6 0 -10 2 -11 8 0 6 9 12 5 20 -13 7 -15 10 -30 7 -35 -3 -5 -1 -11 5 -15 13 -8 13 -35 0 -35 -5 0 -7 7 -4 15 4 8 1 16 -5 16 -6 1 -16 2 -22 3 -6 0 -29 35 -51 76 -39 73 -39 74 -9 40 25 -29 31 -32 31 -15z m4030 1 c0 -2 -7 -7 -16 -10 -8 -3 -12 -2 -9 4 6 10 25 14 25 6z m80 -6 c-8 -5 -22 -9 -30 -9 -10 0 -8 3 5 9 27 12 43 12 25 0z m-4523 -32 c-3 -8 -6 -5 -6 6 -1 11 2 17 5 13 3 -3 4 -12 1 -19z m5595 -50 c75 -62 113 -100 110 -110 -1 -5 2 -7 7 -3 6 3 19 -2 29 -12 16 -16 51 -46 146 -124 17 -14 41 -32 54 -38 14 -7 21 -18 18 -26 -3 -9 0 -12 8 -9 7 3 19 -3 27 -12 13 -16 12 -17 -6 -11 l-20 7 20 -16 20 -16 -20 5 c-11 3 -40 13 -65 22 -40 15 -47 15 -71 1 -19 -11 -50 -14 -125 -12 -54 1 -85 -1 -69 -4 17 -4 24 -8 17 -9 -7 0 -20 -8 -28 -16 -14 -13 -12 -15 14 -15 48 0 65 -9 50 -27 -10 -13 -8 -14 12 -11 14 1 29 8 33 13 5 6 7 -2 4 -18 -3 -22 -2 -25 9 -16 8 6 14 17 14 24 0 7 7 19 17 26 15 13 14 11 -1 -19 -9 -18 -15 -39 -13 -45 2 -7 9 -2 16 11 19 36 31 25 15 -15 l-15 -38 21 24 c11 13 20 19 21 15 0 -5 4 0 9 11 8 19 9 19 9 -2 1 -13 -3 -23 -8 -23 -5 0 -12 -7 -15 -16 -6 -15 -4 -15 11 -3 15 13 16 12 11 -8 -4 -16 -2 -20 8 -16 9 3 14 -2 14 -17 0 -19 2 -20 15 -10 12 10 15 10 15 -4 0 -9 5 -16 10 -16 6 0 10 5 10 12 0 11 14 2 16 -10 0 -4 4 -15 9 -25 6 -15 10 -16 16 -5 7 10 9 8 9 -6 0 -11 5 -16 13 -13 8 3 14 -1 14 -9 0 -18 2 -19 -102 16 -106 35 -312 53 -340 30 -13 -11 -15 0 -15 100 0 94 -4 121 -24 173 -23 59 -40 116 -39 127 1 3 6 46 12 95 6 50 13 99 15 110 3 11 5 24 5 28 1 11 17 1 73 -45z m-5622 21 c0 -6 6 -9 14 -6 25 10 27 -6 4 -30 -26 -28 -48 -30 -48 -3 0 11 4 20 10 20 5 0 7 7 4 15 -4 8 -1 15 5 15 6 0 11 -5 11 -11z m1104 -15 c3 -8 2 -12 -4 -9 -6 3 -10 10 -10 16 0 14 7 11 14 -7z m4358 -75 c-9 -31 -10 -30 -7 16 5 61 6 66 12 39 2 -12 0 -37 -5 -55z m-1431 28 c13 4 19 0 19 -11 0 -11 -4 -14 -12 -9 -7 4 -20 6 -29 5 -13 -2 -15 3 -10 25 5 24 6 25 9 7 2 -16 8 -20 23 -17z m19 23 c0 -5 -2 -10 -4 -10 -3 0 -8 5 -11 10 -3 6 -1 10 4 10 6 0 11 -4 11 -10z m-4010 -4 c0 -2 -8 -10 -17 -17 -16 -13 -17 -12 -4 4 13 16 21 21 21 13z m654 -53 c-4 -27 -7 -60 -6 -75 1 -16 -3 -28 -9 -28 -6 0 -7 4 -4 10 3 6 -1 7 -9 4 -9 -3 -16 -2 -16 4 0 6 5 12 11 14 6 2 13 25 15 52 5 49 10 66 21 66 3 0 2 -21 -3 -47z m-78 11 c-4 -9 -9 -15 -11 -12 -3 3 -3 13 1 22 4 9 9 15 11 12 3 -3 3 -13 -1 -22z m4803 -53 c-4 -30 -16 -62 -25 -70 -15 -15 -16 -14 -9 9 3 14 10 34 15 45 5 11 11 33 15 49 10 48 14 24 4 -33z m-4849 45 c0 -3 -4 -8 -10 -11 -5 -3 -10 -1 -10 4 0 6 5 11 10 11 6 0 10 -2 10 -4z m-40 -26 c-8 -5 -19 -10 -25 -10 -5 0 -3 5 5 10 8 5 20 10 25 10 6 0 3 -5 -5 -10z m108 -7 c-10 -2 -26 -2 -35 0 -10 3 -2 5 17 5 19 0 27 -2 18 -5z m4302 -31 c0 -5 10 -14 23 -20 12 -6 17 -11 11 -11 -7 -1 -22 8 -35 19 -13 10 -18 19 -11 20 6 0 12 -4 12 -8z m-3842 -27 c-3 -3 -9 2 -12 12 -6 14 -5 15 5 6 7 -7 10 -15 7 -18z m-13 -15 c10 -11 19 -34 21 -52 4 -30 3 -31 -10 -13 -7 11 -16 30 -20 43 -4 12 -12 22 -17 22 -5 0 -9 5 -9 10 0 16 15 12 35 -10z m-395 -30 c0 -5 -7 -7 -15 -4 -8 4 -15 8 -15 10 0 2 7 4 15 4 8 0 15 -4 15 -10z m3571 -53 c-6 -6 -14 -7 -18 -2 -5 4 -2 10 5 12 6 3 13 14 13 26 2 20 2 20 6 -2 3 -13 0 -28 -6 -34z m824 44 c14 -6 8 -8 -22 -7 -23 0 -36 4 -30 8 15 9 26 9 52 -1z m-4390 -31 c12 -19 -12 -10 -31 11 -19 22 -19 22 3 10 12 -6 25 -16 28 -21z m4278 10 c-5 -19 -23 -29 -23 -12 0 7 20 32 26 32 1 0 0 -9 -3 -20z m157 10 c0 -5 -2 -10 -4 -10 -3 0 -8 5 -11 10 -3 6 -1 10 4 10 6 0 11 -4 11 -10z m924 -15 c-4 -8 -11 -15 -16 -15 -6 0 -5 6 2 15 7 8 14 15 16 15 2 0 1 -7 -2 -15z m-5149 -5 c-3 -5 -3 -15 1 -22 5 -8 10 -6 15 8 7 17 8 17 8 2 1 -10 6 -18 11 -18 6 0 10 -8 10 -18 0 -10 5 -23 12 -30 9 -9 7 -12 -10 -12 -27 0 -28 -16 -4 -38 9 -10 13 -14 8 -10 -4 3 -15 4 -22 1 -8 -3 -14 -1 -14 5 0 5 -9 12 -20 15 -19 5 -29 37 -12 37 4 0 7 17 6 38 -1 36 2 52 12 52 3 0 2 -4 -1 -10z m4206 -1 c11 -5 16 -15 13 -21 -5 -7 -2 -9 9 -5 11 4 14 2 10 -8 -3 -8 -9 -13 -13 -10 -5 3 -11 -1 -13 -7 -3 -7 -6 -3 -6 10 -1 23 -16 28 -41 12 -12 -8 -12 -10 5 -10 16 0 15 -3 -9 -15 -35 -18 -46 -12 -46 25 0 22 5 30 23 33 39 8 48 7 68 -4z m-4011 -37 c-5 -2 -7 -9 -4 -17 3 -7 1 -16 -5 -20 -6 -3 -11 -2 -11 4 0 5 -3 17 -7 27 -5 12 -3 15 6 9 10 -6 11 -2 6 16 -7 23 -7 23 8 4 9 -11 12 -21 7 -23z m-550 -41 c0 -50 3 -59 18 -57 9 0 22 12 29 26 10 23 11 22 6 -13 -4 -29 -3 -37 8 -35 9 2 13 -4 11 -16 -2 -11 1 -15 7 -11 6 3 11 1 11 -6 0 -7 -10 -10 -27 -7 -16 3 -68 3 -116 -1 -49 -3 -92 -4 -96 -1 -11 7 -21 51 -10 44 11 -7 11 -1 -1 31 -6 15 -6 24 -1 20 5 -3 15 -21 21 -39 15 -46 35 -53 35 -13 0 24 5 32 25 38 21 6 11 14 -12 10 -4 0 -5 5 -2 13 3 7 -2 19 -11 26 -8 7 -15 18 -15 24 1 6 12 -2 25 -19 13 -16 27 -26 31 -22 4 4 2 7 -4 7 -7 0 -12 7 -12 17 0 14 2 14 20 -2 11 -10 20 -13 20 -7 0 6 -12 20 -27 31 -18 13 -23 20 -13 21 9 0 27 -13 41 -29 l26 -29 0 29 c0 19 -3 25 -9 17 -4 -7 -8 -8 -8 -2 0 6 3 14 6 17 15 15 24 -8 24 -62z m140 22 c0 -8 -5 -11 -10 -8 -6 4 -8 11 -5 16 4 5 1 9 -4 9 -6 0 -11 5 -11 11 0 8 5 8 15 -1 8 -7 15 -19 15 -27z m5696 0 c-7 -7 -26 7 -26 19 0 6 6 6 15 -2 9 -7 13 -15 11 -17z m-1089 -1 c-2 -4 -9 -20 -17 -36 -13 -25 -13 -29 5 -42 15 -11 16 -17 7 -26 -9 -9 -12 -8 -12 6 0 14 -3 16 -13 7 -11 -9 -14 -5 -15 20 0 18 5 32 14 36 8 3 14 16 14 30 0 14 4 22 10 18 6 -4 9 -9 7 -13z m-4862 -50 c-6 -7 -34 29 -34 43 0 6 9 -1 20 -14 11 -13 17 -26 14 -29z m607 4 c4 -21 3 -23 -14 -13 -10 7 -14 13 -9 15 6 2 7 10 4 19 -4 10 -2 14 4 10 6 -4 13 -18 15 -31z m-343 -8 c6 -18 7 -28 2 -23 -10 12 -25 55 -18 55 3 0 10 -15 16 -32z m4385 17 c14 -11 16 -15 5 -15 -8 0 -23 7 -33 15 -14 11 -16 15 -5 15 8 0 23 -7 33 -15z m-4004 -24 c0 -17 -4 -32 -9 -35 -5 -3 -9 10 -8 29 1 42 17 47 17 6z m-725 -31 l20 -25 -22 19 c-13 11 -23 24 -23 29 0 6 1 8 3 6 1 -2 11 -15 22 -29z m375 10 c0 -11 -4 -20 -9 -20 -5 0 -7 9 -4 20 3 11 7 20 9 20 2 0 4 -9 4 -20z m304 -11 c20 -24 26 -41 26 -79 l0 -48 -57 -32 c-32 -18 -69 -40 -82 -49 -24 -15 -24 -15 -11 8 19 36 14 124 -10 171 -11 22 -17 40 -13 40 20 0 75 -43 83 -65 5 -14 14 -25 20 -25 13 0 13 66 0 91 -17 32 14 23 44 -12z m1626 22 c0 -6 -4 -13 -10 -16 -13 -8 -13 -85 -1 -85 6 0 16 12 23 27 13 26 74 70 84 60 3 -2 -4 -20 -15 -38 -24 -38 -29 -136 -10 -171 11 -21 10 -20 -27 2 -132 78 -124 71 -124 123 0 40 5 54 29 78 29 29 51 37 51 20z m2705 -31 c-3 -5 -18 -10 -33 -9 l-27 1 25 8 c35 11 42 11 35 0z m-119 -89 c-1 -18 -5 -27 -13 -24 -7 3 -13 7 -13 9 0 4 24 44 26 44 1 0 1 -13 0 -29z m-4156 -61 c0 -11 -26 -38 -69 -69 l-69 -50 -5 32 c-2 18 -2 33 2 35 3 1 33 20 66 41 63 40 75 42 75 11z m1606 -86 c-1 -19 -2 -34 -4 -34 -1 0 -34 23 -72 51 -63 46 -82 73 -64 91 3 4 36 -12 73 -34 62 -38 67 -43 67 -74z m-1521 -10 c100 -154 255 -269 435 -326 64 -20 95 -23 215 -22 124 0 149 3 220 27 173 58 325 173 415 316 25 38 50 72 56 75 10 4 134 -78 134 -88 0 -2 -14 -32 -32 -66 -60 -118 -232 -276 -383 -353 -127 -64 -336 -104 -480 -92 -103 9 -242 44 -327 83 -188 85 -354 247 -436 424 -3 7 116 98 128 98 3 0 28 -34 55 -76z m3353 16 c36 -8 56 -9 65 -2 20 17 89 19 95 3 3 -10 -1 -12 -17 -8 -14 3 -21 0 -21 -8 0 -8 -5 -17 -12 -21 -7 -4 -8 -3 -4 4 4 7 3 12 -3 12 -5 0 -12 -4 -16 -10 -3 -5 -12 -7 -20 -3 -8 3 -15 0 -15 -7 0 -13 -91 -10 -101 4 -4 4 -20 9 -37 10 -17 1 -34 5 -39 9 -4 5 1 5 12 1 16 -6 18 -5 8 7 -18 18 -16 30 2 23 8 -4 15 -1 15 5 0 8 6 9 18 3 9 -5 41 -15 70 -22z m1172 20 c0 -5 6 -7 14 -4 11 4 13 0 9 -15 -3 -13 -1 -21 7 -21 6 0 14 9 17 20 4 15 11 18 37 14 73 -12 74 -13 70 -36 l-5 -23 12 23 c14 26 22 27 39 7 10 -12 10 -19 2 -27 -21 -21 -14 -40 6 -20 11 9 17 20 15 25 -2 4 1 7 6 7 6 0 11 -5 11 -11 0 -5 5 -7 10 -4 6 3 10 2 10 -4 0 -5 8 -8 18 -6 15 3 18 -2 15 -28 -3 -28 -2 -29 6 -10 7 15 16 20 30 16 24 -6 26 -14 9 -32 -11 -11 -9 -13 10 -8 16 4 22 1 23 -11 0 -14 2 -13 9 3 7 17 9 17 9 3 1 -19 21 -26 21 -7 0 5 5 7 12 3 8 -5 9 -2 5 9 -3 10 -2 17 3 17 6 0 10 -9 10 -20 0 -11 5 -20 11 -20 5 0 7 5 4 10 -7 12 -3 12 19 4 9 -3 16 -16 16 -28 0 -16 2 -18 9 -7 5 8 6 21 3 30 -5 14 -4 14 11 -1 9 -9 17 -21 17 -27 0 -14 13 -14 27 0 8 8 17 7 32 -2 16 -11 23 -11 33 -1 9 9 9 12 0 12 -7 0 -12 7 -12 15 0 12 3 12 18 -2 11 -11 14 -21 8 -25 -6 -4 -4 -13 5 -24 12 -16 12 -17 -3 -11 -12 4 -15 2 -11 -8 3 -8 10 -12 17 -9 6 3 0 -4 -13 -15 -13 -12 -31 -21 -41 -21 -10 0 -20 -3 -22 -8 -1 -4 -34 -18 -73 -30 -38 -13 -95 -36 -125 -50 -30 -14 -77 -28 -104 -32 -42 -4 -52 -10 -66 -35 -9 -16 -23 -31 -31 -31 -26 -3 -59 -16 -59 -24 0 -5 -9 -6 -19 -3 -16 4 -19 1 -14 -16 4 -14 1 -21 -9 -21 -8 0 -23 -9 -33 -20 -22 -25 -43 -27 -24 -2 13 15 12 16 -3 4 -10 -8 -14 -20 -11 -30 5 -14 3 -14 -15 2 -12 11 -25 16 -30 11 -4 -4 -1 -10 6 -12 17 -6 15 -23 -3 -23 -8 0 -15 -4 -15 -10 0 -5 -7 -10 -16 -10 -10 0 -13 -6 -9 -19 7 -24 -4 -53 -20 -47 -8 3 -11 -2 -9 -12 6 -24 -7 -39 -39 -47 -18 -5 -27 -3 -27 5 0 7 -8 9 -21 5 -19 -6 -21 -4 -17 37 2 31 9 46 23 53 16 8 21 22 22 65 2 30 8 114 13 185 6 72 13 173 16 225 7 151 9 158 47 162 71 7 97 6 97 -2z m380 -15 c0 -16 -6 -25 -15 -25 -18 0 -19 16 -2 35 16 19 17 19 17 -10z m-1168 5 c0 -5 1 -16 2 -22 1 -7 6 -16 11 -20 6 -5 5 -8 -2 -8 -18 0 -42 -93 -52 -200 -9 -102 5 -160 39 -160 12 0 21 -14 28 -42 l10 -43 -1 51 c-1 29 -6 49 -11 46 -5 -3 -6 0 -3 5 4 6 20 16 37 21 26 9 31 8 41 -9 5 -11 9 -50 8 -87 -4 -91 9 -225 27 -274 8 -22 14 -42 14 -44 0 -2 -45 -4 -100 -4 -67 0 -100 4 -100 11 0 7 12 9 33 5 36 -6 50 0 62 29 7 18 9 18 12 3 5 -20 23 -24 23 -5 0 6 -9 46 -20 87 -19 72 -20 73 -16 23 4 -38 1 -53 -10 -57 -9 -3 -14 1 -15 12 0 14 -3 13 -16 -5 -8 -13 -24 -23 -35 -23 -10 0 -16 -4 -13 -10 3 -5 16 -10 28 -10 21 -1 21 -1 -3 -14 -14 -8 -43 -13 -68 -11 -23 2 -40 0 -37 -5 3 -5 -3 -13 -13 -19 -15 -8 -25 -4 -47 17 -24 22 -26 27 -12 30 9 2 17 11 17 20 0 12 -3 13 -12 4 -16 -16 -31 -15 -22 1 4 6 -4 2 -18 -11 -24 -22 -38 -21 -38 5 0 7 9 13 20 13 14 0 18 5 13 18 -6 14 -4 15 9 5 15 -13 28 -8 28 9 0 5 -4 6 -10 3 -5 -3 -10 -2 -10 4 0 5 5 13 10 16 22 13 8 25 -25 21 -42 -5 -45 5 -7 33 l27 20 -25 1 c-25 0 -25 1 -27 101 0 56 -6 104 -11 108 -16 10 -25 71 -23 155 1 94 13 109 78 101 29 -4 46 -1 56 10 9 8 25 15 36 15 36 0 68 21 84 56 16 32 45 47 49 24z m-4007 -58 c-10 -11 -23 19 -17 41 5 20 6 19 15 -6 5 -16 6 -31 2 -35z m1845 4 c-15 -15 -22 -1 -14 30 l7 28 9 -24 c5 -14 5 -27 -2 -34z m612 1 c1 -14 6 -25 11 -24 5 1 16 -9 25 -23 16 -25 16 -25 -4 -7 -25 21 -34 22 -34 2 0 -8 4 -15 10 -15 5 0 14 -10 21 -21 7 -14 7 -19 0 -15 -5 4 -15 -3 -21 -14 -8 -15 -8 -20 1 -18 6 2 13 -2 15 -7 2 -6 -5 -11 -16 -11 -21 0 -22 3 -22 36 0 90 3 153 7 148 3 -2 6 -16 7 -31z m2758 13 c13 -8 13 -10 -2 -10 -9 0 -20 5 -23 10 -8 13 5 13 25 0z m-1437 -26 c4 -23 3 -24 -10 -11 -9 8 -12 20 -9 26 10 16 13 14 19 -15z m527 11 c0 -8 -4 -15 -10 -15 -5 0 -7 7 -4 15 4 8 8 15 10 15 2 0 4 -7 4 -15z m-2516 -72 c-8 -35 -24 -54 -24 -29 0 18 17 56 26 56 2 0 1 -12 -2 -27z m-1724 -26 c0 -10 -4 -15 -10 -12 -5 3 -10 18 -10 33 0 21 2 24 10 12 5 -8 10 -23 10 -33z m2898 6 c-3 -19 -17 -33 -33 -33 -6 0 -6 3 1 8 6 4 13 15 17 25 3 9 9 17 12 17 3 0 5 -8 3 -17z m-3571 -8 c4 -4 3 -5 -3 -2 -7 4 -15 0 -18 -9 -4 -12 -2 -15 9 -11 8 4 17 2 20 -3 10 -16 25 -11 26 8 1 11 4 9 9 -8 8 -25 8 -25 10 5 2 24 4 26 7 8 4 -22 13 -27 42 -24 7 2 10 -3 6 -9 -7 -12 11 -40 26 -40 5 0 9 8 9 18 1 16 1 16 11 -1 6 -9 15 -15 21 -11 6 4 8 -1 4 -13 -3 -11 1 -27 9 -39 16 -18 16 -18 10 4 -9 33 11 27 25 -8 7 -16 17 -27 23 -23 6 4 8 -3 3 -21 -4 -16 -2 -26 5 -26 7 0 9 -9 6 -22 -7 -26 16 -63 32 -53 6 3 11 16 12 28 1 20 2 20 8 -3 9 -32 41 -40 41 -11 0 12 6 21 15 21 10 0 15 7 13 18 -2 10 2 16 10 14 8 -1 11 2 7 8 -10 16 4 50 19 44 7 -3 13 1 13 8 1 7 2 30 4 51 3 35 5 37 16 21 8 -10 11 -25 8 -32 -3 -7 0 -22 5 -33 7 -11 7 -19 1 -19 -6 0 -6 -13 -1 -32 5 -18 11 -111 15 -205 l6 -173 -27 0 c-18 0 -25 -4 -21 -14 3 -8 -1 -17 -9 -20 -9 -3 -12 -10 -9 -16 3 -5 2 -10 -4 -10 -5 0 -13 5 -16 10 -3 6 -15 10 -26 10 -12 0 -19 7 -19 19 0 10 -9 21 -19 24 -14 3 -18 1 -14 -9 3 -8 -1 -14 -11 -14 -9 0 -16 -4 -16 -10 0 -5 -12 -10 -26 -10 -19 0 -25 4 -20 15 3 8 1 15 -4 15 -6 0 -10 -8 -10 -17 0 -15 -2 -16 -10 -3 -5 8 -10 24 -10 35 0 17 2 17 10 5 8 -13 10 -12 10 3 0 9 -4 17 -10 17 -5 0 -10 5 -10 10 0 18 22 10 27 -10 3 -11 10 -17 15 -14 5 3 2 14 -7 24 -10 11 -13 24 -8 36 6 17 5 18 -12 4 -10 -8 -16 -10 -12 -4 4 6 -4 39 -18 74 l-24 62 27 -18 c15 -10 32 -25 39 -33 11 -14 12 -14 13 0 0 8 -6 21 -12 29 -11 12 -10 12 5 1 9 -8 20 -12 23 -9 2 3 -8 15 -23 27 -15 12 -37 28 -48 37 -11 9 1 5 27 -9 26 -14 49 -22 52 -19 11 10 6 22 -10 22 -9 0 -14 7 -12 19 2 11 -8 32 -22 47 -19 21 -21 26 -7 21 10 -4 16 -3 12 2 -3 5 1 12 7 15 7 4 -3 4 -22 2 -19 -3 -29 -2 -22 1 17 7 15 26 -2 20 -8 -3 -16 -3 -18 2 -2 4 -34 20 -73 36 -77 32 -165 83 -165 97 0 5 4 6 10 3 6 -3 7 1 4 9 -3 9 -2 16 3 16 5 0 8 13 5 29 -3 23 0 29 12 27 8 -1 19 -6 23 -11z m4103 -3 c0 -9 14 -57 30 -105 32 -94 38 -133 18 -121 -7 5 -8 3 -3 -6 11 -18 -15 -30 -38 -17 -15 9 -21 9 -24 0 -3 -7 -9 -13 -15 -13 -6 0 -8 6 -5 13 11 29 -46 44 -64 17 -14 -22 0 65 18 115 9 22 15 61 16 88 0 47 0 47 34 47 25 0 33 -4 33 -18z m2314 3 c-4 -8 -10 -12 -15 -9 -11 6 -2 24 11 24 5 0 7 -7 4 -15z m-6287 -57 c-3 -8 -6 -5 -6 6 -1 11 2 17 5 13 3 -3 4 -12 1 -19z m-260 -23 c0 -8 -4 -12 -9 -9 -4 3 -8 9 -8 15 0 5 4 9 8 9 5 0 9 -7 9 -15z m802 -62 c2 -39 21 -25 21 15 1 33 2 35 14 20 7 -10 16 -15 20 -11 4 4 9 -2 12 -14 4 -13 11 -19 19 -16 8 2 11 11 8 19 -3 8 0 14 5 14 6 0 13 -8 15 -17 4 -14 5 -12 6 5 1 25 21 31 21 5 0 -9 3 -14 6 -10 3 3 20 -9 38 -26 40 -40 160 -127 176 -127 6 0 8 -4 5 -10 -3 -5 -1 -10 5 -10 6 0 30 -9 53 -19 23 -10 58 -26 78 -34 31 -13 36 -19 32 -40 -5 -24 -8 -25 -52 -20 -87 11 -85 11 -85 -27 -1 -48 -31 -75 -84 -78 -30 -2 -48 3 -63 16 -27 26 -62 18 -54 -12 4 -11 3 -16 -2 -11 -4 6 -30 10 -56 10 -37 0 -52 -5 -64 -20 -15 -20 -15 -20 -9 2 7 20 4 21 -34 18 -22 -3 -49 -9 -59 -15 -27 -14 -31 -13 -32 8 0 14 -2 14 -8 -3 -5 -12 -11 34 -15 120 -4 77 -9 174 -12 215 -3 51 -1 70 6 60 8 -12 10 -11 10 8 0 12 5 22 11 22 15 0 39 -26 32 -34 -4 -3 2 -6 11 -6 14 0 17 6 12 33 -5 24 -4 27 3 12 5 -11 10 -30 10 -42z m-249 9 c0 -15 -2 -15 -10 -2 -13 20 -13 33 0 25 6 -3 10 -14 10 -23z m3760 0 c0 -15 -2 -15 -10 -2 -13 20 -13 33 0 25 6 -3 10 -14 10 -23z m-1347 1 c-7 -2 -19 -2 -25 0 -7 3 -2 5 12 5 14 0 19 -2 13 -5z m3292 -55 c8 -44 26 -79 37 -72 4 3 9 -13 10 -35 0 -23 1 -47 2 -53 1 -18 -35 -17 -56 0 -15 13 -23 12 -63 -7 -43 -20 -58 -45 -33 -53 8 -3 2 -14 -17 -31 -32 -28 -55 -36 -35 -12 16 20 2 38 -26 32 -13 -2 -21 0 -18 4 3 5 -2 9 -10 9 -9 0 -16 -6 -16 -12 -1 -7 -7 5 -15 27 -8 22 -19 41 -25 43 -5 2 -10 16 -9 30 0 15 3 21 6 14 4 -10 8 -10 19 -1 10 8 14 8 14 0 0 -6 4 -11 9 -11 5 0 7 10 4 23 -5 18 -3 20 8 10 19 -18 39 -16 40 5 0 9 3 12 5 5 3 -7 12 -9 21 -6 13 5 15 2 11 -15 -10 -35 1 -25 18 17 11 29 20 38 31 34 12 -5 14 -3 8 7 -6 10 -4 12 7 7 11 -4 18 2 22 19 4 13 11 24 16 24 6 0 10 7 10 15 0 28 18 15 25 -17z m-6255 -3 c4 3 10 -8 13 -23 l5 -27 -19 24 c-10 13 -19 28 -18 35 0 7 2 6 6 -2 2 -6 8 -10 13 -7z m4317 -7 c-3 -8 -6 -5 -6 6 -1 11 2 17 5 13 3 -3 4 -12 1 -19z m2003 18 c0 -3 -4 -8 -10 -11 -5 -3 -10 -1 -10 4 0 6 5 11 10 11 6 0 10 -2 10 -4z m30 -38 c0 -32 -3 -39 -10 -28 -13 20 -13 70 0 70 6 0 10 -19 10 -42z m-6388 -13 c3 -14 2 -25 -2 -25 -4 0 -10 11 -12 25 -3 14 -2 25 2 25 4 0 10 -11 12 -25z m3853 -5 c3 -5 2 -10 -4 -10 -5 0 -13 5 -16 10 -3 6 -2 10 4 10 5 0 13 -4 16 -10z m220 -10 c17 -7 17 -9 3 -9 -10 -1 -18 -8 -18 -17 0 -8 5 -12 10 -9 15 9 12 -5 -5 -22 -10 -9 -12 -19 -7 -27 13 -16 24 -81 15 -90 -5 -4 -8 -15 -9 -24 -3 -46 -5 -53 -14 -47 -5 3 -7 0 -4 -8 2 -7 0 -25 -5 -39 -7 -18 -6 -29 2 -37 8 -8 5 -11 -11 -11 -25 0 -29 -15 -7 -24 18 -7 20 -22 3 -24 -39 -2 -95 -11 -111 -17 -15 -6 -17 -4 -11 19 3 14 7 37 8 50 0 13 5 22 9 19 5 -3 6 -11 4 -17 -3 -7 -1 -19 4 -27 6 -10 9 -10 9 -1 0 6 4 12 10 12 5 0 7 -7 4 -15 -8 -20 9 -19 29 3 16 18 25 84 32 262 3 57 5 106 5 107 0 6 36 1 55 -7z m285 -2 c0 6 4 12 9 12 4 0 5 -19 0 -42 -4 -24 -5 -65 -3 -93 3 -43 3 -46 -6 -20 -14 44 -23 164 -11 145 7 -10 11 -11 11 -2z m-4296 -23 c-4 -18 -1 -27 10 -31 9 -3 13 -10 10 -15 -3 -5 0 -9 5 -9 6 0 11 -9 11 -20 0 -25 17 -26 23 -2 4 13 5 12 6 -5 0 -12 5 -24 11 -28 5 -3 6 -13 3 -22 -4 -10 -2 -14 7 -11 7 2 15 22 17 43 5 48 13 59 13 19 0 -17 5 -35 12 -42 9 -9 9 -12 0 -12 -7 0 -12 -7 -12 -15 0 -18 20 -20 21 -2 1 6 5 1 9 -13 8 -25 8 -24 9 5 l1 30 14 -30 c7 -16 18 -42 24 -57 13 -31 32 -37 32 -11 0 14 3 13 20 -5 26 -28 33 -28 25 1 -5 19 -4 20 5 5 6 -10 10 -46 8 -80 -3 -60 -4 -63 -28 -64 -29 0 -122 -34 -131 -47 -4 -5 -11 -7 -17 -3 -6 3 -12 1 -14 -5 -3 -9 -9 -9 -25 0 -15 7 -24 8 -28 1 -16 -26 -40 13 -61 101 -28 115 -28 109 -5 109 25 0 35 66 21 139 -13 68 -13 101 0 101 6 0 8 -11 4 -25z m4206 0 c-7 -8 -17 -15 -22 -15 -6 0 -5 7 2 15 7 8 17 15 22 15 6 0 5 -7 -2 -15z m-487 -10 c-3 -9 -8 -14 -10 -11 -3 3 -2 9 2 15 9 16 15 13 8 -4z m-3393 -17 c0 -6 -6 -5 -15 2 -8 7 -15 14 -15 16 0 2 7 1 15 -2 8 -4 15 -11 15 -16z m3560 12 c12 -7 12 -10 1 -10 -7 0 -11 -6 -8 -13 6 -15 -30 -21 -39 -6 -8 14 3 39 18 39 7 0 20 -5 28 -10z m-4140 -32 c0 -5 -7 -3 -15 6 -8 8 -15 18 -15 22 0 3 7 1 15 -6 8 -7 15 -17 15 -22z m2854 17 c-25 -19 -40 -19 -24 0 7 8 20 15 28 15 13 0 12 -3 -4 -15z m1195 -6 c10 -4 9 -8 -5 -19 -11 -9 -15 -10 -10 -2 4 7 1 15 -8 18 -9 3 -13 11 -10 16 4 6 9 7 13 1 3 -6 12 -12 20 -14z m1209 -15 c1 -14 7 -35 13 -46 6 -12 11 -64 11 -118 0 -65 4 -107 13 -124 l14 -27 -37 3 c-34 3 -37 6 -38 35 -1 18 -5 62 -9 97 -8 80 3 206 19 206 6 0 13 -11 14 -26z m-2565 -1 c-3 -7 -6 -13 -8 -13 -2 0 -5 6 -8 13 -3 8 1 14 8 14 7 0 11 -6 8 -14z m173 1 c-3 -9 -6 -21 -6 -27 0 -7 -4 -7 -9 2 -10 16 -4 41 11 41 6 0 7 -7 4 -16z m3799 -82 c-10 -11 -22 38 -17 63 6 28 7 27 13 -15 3 -25 5 -47 4 -48z m-2535 24 c0 -6 -5 -4 -10 4 -5 8 -10 10 -10 4 0 -6 7 -17 15 -24 20 -17 21 -100 1 -100 -20 0 -26 23 -26 92 0 53 2 59 15 48 8 -7 15 -18 15 -24z m-3555 14 c3 -6 -1 -7 -9 -4 -18 7 -21 14 -7 14 6 0 13 -4 16 -10z m5660 -30 c4 -16 3 -20 -3 -12 -5 7 -17 10 -28 6 -14 -4 -15 -3 -6 4 8 5 13 12 13 16 -5 38 12 28 24 -14z m-301 -15 c19 -29 15 -33 -10 -8 -16 16 -16 16 -9 -7 4 -14 11 -27 15 -30 3 -3 4 -16 0 -29 -5 -22 -7 -20 -19 20 -8 24 -15 51 -15 59 -1 9 -6 21 -10 29 -16 25 30 -7 48 -34z m-3521 16 c-4 -16 2 -20 37 -26 55 -9 46 -17 -12 -9 -41 6 -44 8 -40 30 2 13 8 24 12 24 5 0 6 -9 3 -19z m145 -15 c-7 -7 -19 -11 -25 -9 -18 7 -5 23 18 23 16 0 18 -2 7 -14z m4116 -58 c-9 -14 -24 2 -24 25 1 21 1 21 15 3 8 -10 12 -23 9 -28z m-6447 10 c-3 -8 -6 -5 -6 6 -1 11 2 17 5 13 3 -3 4 -12 1 -19z m2143 12 c0 -5 -2 -10 -4 -10 -3 0 -8 5 -11 10 -3 6 -1 10 4 10 6 0 11 -4 11 -10z m-2244 -47 c3 -31 2 -34 -5 -13 -11 30 -14 66 -5 57 3 -3 8 -23 10 -44z m5029 37 c-3 -5 -10 -10 -16 -10 -5 0 -9 5 -9 10 0 6 7 10 16 10 8 0 12 -4 9 -10z m1244 -19 c22 -22 17 -31 -13 -30 -12 0 -15 3 -8 6 6 2 12 9 12 15 0 6 -7 8 -15 5 -15 -7 -29 6 -18 17 11 10 22 7 42 -13z m-991 -46 c2 -44 0 -51 -20 -60 -15 -7 -23 -18 -22 -34 1 -21 -1 -22 -11 -7 -7 9 -20 16 -29 16 -13 0 -16 12 -16 71 l0 70 48 -3 47 -3 3 -50z m-265 -37 c4 1 7 -1 8 -5 0 -5 -7 -9 -15 -11 -13 -3 -16 6 -14 50 l1 53 6 -45 c3 -25 9 -44 14 -42z m17 53 c0 -6 -4 -13 -10 -16 -5 -3 -10 1 -10 9 0 9 5 16 10 16 6 0 10 -4 10 -9z m-1023 -23 c-3 -8 -6 -5 -6 6 -1 11 2 17 5 13 3 -3 4 -12 1 -19z m2293 12 c0 -5 -5 -10 -11 -10 -5 0 -7 5 -4 10 3 6 8 10 11 10 2 0 4 -4 4 -10z m-606 -35 c17 -25 17 -26 -11 -20 -15 3 -22 2 -15 -1 21 -10 13 -26 -10 -19 -22 7 -68 47 -68 60 0 3 20 5 44 5 36 0 47 -5 60 -25z m-351 -32 c-5 -12 -2 -15 9 -10 12 4 14 1 10 -16 -5 -20 -4 -20 11 -8 15 12 17 11 17 -3 0 -13 -10 -16 -52 -15 -42 1 -48 3 -28 9 17 5 19 8 8 9 -22 1 -24 21 -3 21 8 0 14 3 14 8 -3 14 1 22 11 22 5 0 6 -8 3 -17z m-5314 -53 c0 -10 -3 -8 -9 5 -12 27 -12 43 0 25 5 -8 9 -22 9 -30z m5011 20 c0 -5 -9 -10 -20 -10 -11 0 -20 5 -20 10 0 6 9 10 20 10 11 0 20 -4 20 -10z m-5076 -85 c-4 -8 -13 -15 -21 -15 -13 0 -13 3 -3 15 7 8 16 15 21 15 5 0 6 -7 3 -15z m4606 -236 c0 -11 5 -17 10 -14 14 8 13 -8 -1 -22 -9 -9 -18 -5 -36 13 -27 27 -25 39 6 41 15 1 21 -4 21 -18z m-449 -32 c-10 -9 -11 -8 -5 6 3 10 9 15 12 12 3 -3 0 -11 -7 -18z m1311 5 c-14 -4 -16 -32 -2 -32 6 0 10 -5 10 -10 0 -7 -6 -7 -20 0 -11 6 -20 15 -20 21 0 16 24 37 35 31 5 -3 4 -7 -3 -10z m-1752 -4 c0 -4 -5 -8 -11 -8 -6 0 -19 -10 -30 -22 -10 -13 -18 -17 -19 -10 0 6 5 12 10 12 6 0 10 8 10 18 0 11 7 18 20 18 11 0 20 -4 20 -8z m-89 -11 c-15 -15 -41 -18 -41 -4 0 7 12 13 26 14 19 1 23 -2 15 -10z m1056 -25 c-22 -48 -32 -60 -48 -59 -11 1 -19 5 -19 9 0 19 25 57 39 61 19 4 33 -1 28 -11z m-1190 -14 c-3 -8 -6 -5 -6 6 -1 11 2 17 5 13 3 -3 4 -12 1 -19z m892 -10 c-5 -18 -9 -34 -9 -35 0 -2 -9 -3 -20 -3 -22 0 -18 22 8 53 23 26 32 20 21 -15z m1042 9 c-13 -13 -26 -3 -16 12 3 6 11 8 17 5 6 -4 6 -10 -1 -17z m-1729 -32 c-2 -14 -8 -25 -13 -25 -12 0 -11 27 1 35 6 4 7 11 4 17 -4 6 -2 8 3 5 6 -4 8 -18 5 -32z m-132 8 c0 -15 -2 -15 -9 -4 -7 11 -10 9 -14 -10 -4 -23 -4 -22 -6 4 -1 18 4 27 14 27 8 0 15 -8 15 -17z m1884 -24 c12 10 13 8 9 -8 -4 -17 -1 -21 16 -21 12 0 31 -5 41 -10 23 -13 46 -50 30 -50 -5 0 -10 6 -10 14 0 7 -8 16 -17 20 -10 3 -24 9 -30 12 -9 4 -13 -4 -13 -25 0 -33 -6 -37 -30 -21 -13 8 -13 11 -1 19 11 7 10 12 -8 27 -13 12 -21 30 -20 49 0 29 1 29 10 6 7 -19 12 -21 23 -12z m91 21 c3 -6 -1 -7 -9 -4 -18 7 -21 14 -7 14 6 0 13 -4 16 -10z m-2058 -22 c-3 -8 -6 -5 -6 6 -1 11 2 17 5 13 3 -3 4 -12 1 -19z m243 -58 c0 -12 -8 -12 -35 0 -18 8 -17 9 8 9 15 1 27 -3 27 -9z m1767 -32 c-3 -8 -6 -5 -6 6 -1 11 2 17 5 13 3 -3 4 -12 1 -19z m30 0 c-3 -8 -6 -5 -6 6 -1 11 2 17 5 13 3 -3 4 -12 1 -19z m-1691 -12 c18 -18 18 -32 1 -39 -18 -7 -33 4 -31 23 3 35 7 38 30 16z m1644 -53 c0 -19 -3 -24 -10 -17 -6 6 -8 18 -4 27 9 24 14 21 14 -10z m-1220 -33 c0 -5 -4 -10 -10 -10 -5 0 -10 5 -10 10 0 6 5 10 10 10 6 0 10 -4 10 -10z"/>
<path d="M2150 3736 c0 -4 11 -19 25 -34 14 -15 25 -22 25 -16 0 6 -11 21 -25 34 -14 13 -25 20 -25 16z"/>
<path d="M2267 3712 c10 -18 22 -32 26 -32 11 0 -8 34 -28 50 -13 11 -13 8 2 -18z"/>
<path d="M2606 3335 c4 -16 13 -41 20 -55 l14 -25 -6 30 c-4 17 -13 41 -20 55 l-14 25 6 -30z"/>
<path d="M2160 3096 c0 -2 7 -9 15 -16 13 -11 14 -10 9 4 -5 14 -24 23 -24 12z"/>
<path d="M1242 2733 l3 -168 152 -3 152 -3 13 27 c28 58 58 69 186 69 77 0 125 5 140 13 18 11 30 11 60 1 20 -7 87 -13 147 -13 125 -2 150 -11 171 -62 l14 -35 153 3 152 3 3 168 2 167 -675 0 -675 0 2 -167z m1328 2 l0 -155 -140 0 c-136 0 -141 1 -149 23 -21 53 -44 61 -184 67 -73 4 -142 11 -154 18 -17 9 -29 9 -57 -3 -24 -10 -70 -15 -141 -15 -123 0 -166 -14 -190 -59 l-16 -31 -139 0 -140 0 0 155 0 155 655 0 655 0 0 -155z"/>
<path d="M1320 2840 c0 -5 3 -10 8 -10 9 0 7 -79 -3 -102 -6 -16 -1 -18 35 -18 23 0 50 5 61 10 20 11 26 45 9 55 -6 4 -5 13 2 25 19 30 -6 50 -63 50 -27 0 -49 -4 -49 -10z m88 -27 c-2 -10 -12 -18 -23 -18 -11 0 -21 8 -23 18 -3 13 3 17 23 17 20 0 26 -4 23 -17z m1 -47 c9 -10 8 -16 -4 -26 -17 -14 -45 -7 -45 13 0 29 30 37 49 13z"/>
<path d="M1560 2803 c-11 -27 -24 -56 -30 -65 -14 -25 -13 -28 15 -28 22 0 25 3 19 25 -5 22 -3 25 21 25 24 0 26 -3 21 -25 -6 -23 -3 -25 24 -25 16 0 30 1 30 3 0 2 -9 21 -19 43 -11 22 -23 52 -26 67 -11 41 -33 32 -55 -20z m40 -25 c0 -5 -7 -8 -15 -8 -15 0 -20 21 -8 33 7 7 23 -11 23 -25z"/>
<path d="M1740 2840 c0 -5 5 -10 10 -10 6 0 10 -20 10 -44 0 -25 -4 -48 -10 -51 -18 -11 -10 -25 15 -25 27 0 32 9 14 27 -6 6 -9 26 -7 44 l3 34 28 -52 c15 -29 32 -53 37 -53 6 0 10 26 10 58 0 32 5 63 12 70 9 9 6 12 -14 12 -25 0 -26 -2 -22 -37 l5 -38 -21 38 c-15 27 -27 37 -45 37 -14 0 -25 -4 -25 -10z"/>
<path d="M1956 2834 c-9 -24 -7 -29 6 -16 26 26 38 13 38 -38 0 -27 -4 -50 -10 -50 -5 0 -10 -4 -10 -10 0 -5 13 -10 28 -10 l28 0 -4 60 c-3 38 -1 60 6 60 6 0 14 -4 17 -10 12 -20 26 -10 15 10 -14 26 -104 29 -114 4z"/>
<path d="M2160 2840 c0 -5 4 -10 8 -10 10 0 8 -77 -3 -102 -6 -16 -1 -18 48 -18 41 0 56 4 61 16 11 29 6 35 -16 20 -31 -22 -58 -20 -58 2 0 26 11 34 27 21 10 -9 13 -6 12 17 0 16 -3 23 -6 17 -8 -21 -33 -15 -33 7 0 15 7 20 29 20 16 0 31 -6 34 -12 2 -7 7 -10 11 -7 3 3 4 14 0 23 -5 12 -19 16 -60 16 -30 0 -54 -4 -54 -10z"/>
<path d="M2370 2840 c0 -5 4 -10 9 -10 5 0 8 -8 6 -17 -2 -10 -6 -37 -8 -60 -5 -40 -3 -43 19 -43 24 0 33 15 13 22 -6 2 -9 21 -7 43 l3 40 28 -52 c15 -29 32 -53 37 -53 6 0 10 27 10 60 0 33 4 60 10 60 6 0 10 5 10 10 0 6 -11 10 -24 10 -23 0 -24 -3 -19 -35 3 -19 3 -35 -1 -35 -3 0 -12 16 -20 35 -12 27 -21 35 -40 35 -15 0 -26 -4 -26 -10z"/>
<path d="M1875 2645 c-20 -9 -63 -13 -130 -12 -113 2 -154 -13 -176 -65 l-11 -28 -157 -2 -156 -3 0 -490 0 -490 33 -68 c79 -161 230 -288 418 -354 72 -25 91 -27 224 -27 132 0 152 2 222 27 209 73 405 258 438 413 7 31 9 222 8 524 l-3 475 -155 3 -155 3 -20 32 c-26 41 -85 58 -175 51 -44 -4 -81 0 -115 10 -58 18 -52 18 -90 1z m61 -81 c-8 -17 -14 -20 -23 -12 -9 7 -13 7 -13 -1 0 -6 -5 -11 -11 -11 -6 0 -9 6 -6 14 3 7 0 19 -6 25 -8 8 -7 11 6 11 9 0 17 4 17 9 0 5 10 4 23 -2 20 -9 22 -14 13 -33z m-270 -34 c0 -20 -17 -60 -27 -60 -10 0 -20 46 -13 65 8 19 39 16 40 -5z m397 3 c-4 -10 -13 -24 -20 -31 -6 -7 -10 -18 -7 -26 3 -7 -2 -19 -11 -26 -17 -14 -17 -15 -20 25 -2 39 16 61 62 74 1 1 -1 -7 -4 -16z m-293 -27 c0 -8 -5 -18 -10 -21 -6 -4 -8 -10 -6 -14 3 -4 -8 -5 -25 -3 -35 5 -37 15 -7 36 28 20 48 20 48 2z m380 -4 c0 -5 -9 -17 -20 -27 -11 -10 -18 -21 -15 -24 2 -4 -1 -13 -6 -21 -8 -13 -12 -12 -24 4 -13 17 -12 22 6 47 19 27 59 40 59 21z m-570 -53 c0 -21 -5 -27 -19 -26 -12 1 -17 6 -13 16 3 8 1 12 -4 8 -6 -3 -11 4 -11 16 -1 12 3 25 10 29 18 11 37 -11 37 -43z m85 2 c-17 -10 -39 -30 -48 -45 -10 -14 -24 -26 -32 -26 -14 0 -20 -12 -16 -33 1 -5 -2 -6 -7 -3 -18 11 -82 -97 -82 -139 0 -15 -5 -35 -11 -46 -6 -11 -8 -25 -6 -32 3 -7 8 -4 13 8 4 11 15 30 24 42 16 20 17 20 28 3 9 -15 8 -22 -3 -33 -8 -8 -11 -18 -7 -21 3 -4 -1 -4 -9 -1 -33 13 -52 -55 -30 -108 6 -16 11 -37 11 -47 0 -10 11 -32 25 -48 14 -17 25 -33 25 -38 0 -4 9 -18 21 -30 13 -14 17 -24 10 -28 -6 -4 -18 2 -28 13 -9 11 -20 18 -24 15 -4 -2 -5 4 -2 14 2 10 -5 28 -17 42 -11 13 -23 35 -26 49 -3 14 -11 42 -18 61 -32 94 1 237 75 329 16 19 25 39 22 44 -3 6 -1 7 6 3 6 -4 25 6 43 24 30 30 60 48 83 49 6 1 -4 -7 -20 -18z m575 0 c0 -5 -12 -17 -27 -28 -16 -10 -28 -25 -28 -33 0 -8 -8 -16 -17 -18 -25 -5 -24 42 2 68 20 20 70 28 70 11z m-512 -23 c3 -14 -3 -18 -25 -18 -15 0 -34 4 -42 9 -11 7 -10 11 5 20 26 15 58 9 62 -11z m201 13 c7 -5 11 -13 7 -19 -3 -5 2 -13 12 -18 12 -6 5 -10 -28 -14 -44 -7 -44 -7 18 -8 47 -2 62 -6 62 -16 0 -8 -5 -18 -11 -21 -6 -4 -8 -14 -4 -23 3 -8 0 -19 -7 -24 -10 -7 -10 -8 2 -7 35 4 50 -2 50 -19 0 -10 4 -22 10 -27 6 -7 -40 -9 -124 -7 l-132 3 4 28 c3 23 8 27 26 24 18 -4 22 0 21 19 0 13 -4 29 -8 36 -5 7 -3 12 5 12 9 0 9 3 -2 10 -13 8 -12 10 3 10 19 0 50 28 60 53 7 19 16 21 36 8z m-445 -53 c21 -30 20 -47 -3 -45 -11 0 -17 5 -15 9 3 4 1 8 -4 8 -12 0 -24 29 -16 41 9 15 22 10 38 -13z m174 -15 c-4 -19 -30 -28 -55 -19 -23 9 3 36 34 36 18 0 24 -5 21 -17z m661 1 c6 -6 -17 -29 -29 -30 -6 -1 -17 -2 -25 -3 -8 0 -14 -6 -12 -13 1 -6 -6 -14 -15 -16 -37 -8 -17 55 22 71 14 5 50 -1 59 -9z m-866 -91 c2 -14 -1 -23 -8 -23 -19 0 -48 38 -41 55 8 22 43 -1 49 -32z m133 35 c4 -6 0 -16 -9 -23 -9 -7 -14 -14 -11 -17 2 -3 -7 -3 -21 -1 -31 6 -32 17 -3 37 27 19 35 20 44 4z m789 -31 c22 -17 11 -41 -16 -34 -11 3 -19 1 -19 -5 0 -5 -4 -6 -10 -3 -5 3 -10 1 -10 -4 0 -6 -12 -11 -26 -11 -20 0 -25 4 -20 16 3 9 6 20 6 25 0 5 7 9 15 9 8 0 15 5 15 10 0 15 43 12 65 -3z m-809 -53 c1 -17 -6 -21 -40 -23 l-40 -2 24 26 c28 29 55 29 56 -1z m-138 -38 c17 -34 13 -39 -20 -22 -15 8 -29 12 -31 9 -3 -2 -4 4 -3 14 3 41 34 40 54 -1z m432 -3 c11 -17 11 -17 6 0 -5 15 2 17 44 17 42 0 49 -2 44 -17 -5 -17 -5 -17 6 0 6 9 21 17 33 17 15 0 23 -6 23 -17 1 -10 4 -45 7 -78 3 -33 10 -118 17 -190 6 -71 13 -141 15 -155 2 -14 4 -37 4 -52 1 -27 3 -28 53 -28 28 0 49 -3 45 -6 -8 -8 -486 -8 -494 0 -4 3 16 6 44 6 l51 0 6 43 c3 23 10 105 16 182 6 77 14 147 17 155 10 25 10 50 1 50 -5 0 -5 8 0 18 4 9 8 29 7 45 -1 22 3 27 22 27 12 0 27 -8 33 -17z m543 -21 c8 -7 17 -21 20 -31 3 -14 0 -17 -19 -13 -13 2 -24 9 -24 15 0 7 -4 7 -12 -1 -8 -8 -15 -9 -25 0 -10 8 -12 7 -8 -4 5 -12 -1 -15 -23 -14 -25 1 -28 4 -22 21 14 40 79 55 113 27z m-993 -57 c7 -8 15 -13 19 -11 4 3 7 -4 7 -15 0 -10 -6 -19 -12 -19 -20 0 -58 36 -50 48 10 16 21 15 36 -3z m125 -17 c7 -7 -34 -58 -46 -58 -5 0 -8 15 -6 34 2 29 5 33 25 31 12 -1 25 -4 27 -7z m859 -49 c34 -26 34 -49 0 -49 -17 0 -23 4 -18 12 5 8 2 9 -9 5 -9 -3 -19 -1 -23 5 -4 7 -9 7 -14 -1 -8 -14 -40 -4 -40 13 0 39 62 48 104 15z m-847 -53 c-1 -19 -4 -32 -6 -30 -2 2 -10 -1 -17 -7 -17 -14 -28 24 -14 51 18 33 40 25 37 -14z m-110 -1 l28 -24 -31 -1 c-33 0 -60 22 -49 40 10 15 21 12 52 -15z m875 -37 c44 -26 58 -43 58 -71 0 -19 4 -26 12 -21 6 4 8 3 4 -4 -10 -17 -69 6 -61 25 3 11 1 13 -10 9 -9 -3 -15 0 -15 9 0 8 -4 15 -10 15 -5 0 -10 -5 -10 -12 0 -6 -9 -3 -20 7 -11 10 -20 22 -20 27 0 7 27 23 48 27 1 1 12 -5 24 -11z m-727 -17 c3 -6 -1 -25 -9 -43 l-14 -33 -11 29 c-7 16 -10 35 -7 43 6 15 32 17 41 4z m-99 -35 c18 -14 18 -15 1 -21 -25 -10 -64 2 -64 20 0 19 37 20 63 1z m544 -341 c68 -58 132 -105 142 -105 10 0 18 2 18 4 0 3 -36 30 -80 61 -44 31 -82 61 -86 67 -4 6 10 -1 30 -14 31 -21 46 -25 94 -21 31 2 111 5 176 6 110 2 120 4 129 23 8 18 15 21 55 16 26 -2 49 -6 51 -8 2 -2 -5 -25 -16 -51 -16 -39 -24 -48 -43 -45 -31 3 -54 -28 -32 -44 15 -11 13 -16 -12 -53 -31 -44 -36 -47 -54 -29 -18 18 -56 -20 -40 -40 11 -12 6 -21 -27 -49 -37 -32 -40 -33 -53 -16 -17 23 -48 5 -45 -26 2 -17 -7 -26 -40 -41 -51 -24 -67 -25 -67 -5 0 15 -17 19 -43 9 -9 -3 -13 -13 -10 -24 5 -20 -2 -23 -84 -34 -38 -6 -43 -4 -43 14 0 15 -7 20 -29 20 -25 0 -28 -3 -24 -21 6 -20 3 -20 -53 -14 -71 9 -77 12 -71 36 3 11 2 19 -1 19 -4 0 -17 3 -29 6 -17 5 -23 2 -23 -9 0 -26 -12 -26 -68 -1 -46 20 -52 26 -43 42 7 14 5 21 -11 31 -18 11 -23 11 -34 -4 -15 -20 -35 -11 -73 29 -19 20 -22 29 -13 38 9 9 8 16 -5 30 -15 16 -18 17 -33 3 -16 -15 -20 -13 -51 26 -31 39 -32 42 -14 55 15 12 16 16 4 31 -7 10 -14 19 -15 21 -1 2 -11 -1 -22 -7 -17 -9 -22 -4 -42 39 -13 28 -21 52 -18 55 2 3 25 8 51 11 43 6 47 5 58 -19 10 -22 15 -24 37 -16 14 5 33 7 41 3 9 -3 70 -8 136 -10 l120 -3 55 36 c30 20 49 29 41 20 -7 -9 -9 -17 -3 -17 11 0 29 20 32 35 1 6 6 9 10 8 4 -1 16 7 25 17 10 11 19 20 20 20 2 0 58 -47 125 -105z m-29 48 c13 -16 12 -17 -3 -4 -17 13 -22 21 -14 21 2 0 10 -8 17 -17z m-230 -470 c13 -16 12 -17 -3 -4 -17 13 -22 21 -14 21 2 0 10 -8 17 -17z"/>
<path d="M1903 2363 c9 -2 25 -2 35 0 9 3 1 5 -18 5 -19 0 -27 -2 -17 -5z"/>
<path d="M1820 2170 c0 -5 5 -10 10 -10 6 0 10 5 10 10 0 6 -4 10 -10 10 -5 0 -10 -4 -10 -10z"/>
<path d="M1900 2170 c0 -5 5 -10 10 -10 6 0 10 5 10 10 0 6 -4 10 -10 10 -5 0 -10 -4 -10 -10z"/>
<path d="M1980 2170 c0 -5 5 -10 10 -10 6 0 10 5 10 10 0 6 -4 10 -10 10 -5 0 -10 -4 -10 -10z"/>
<path d="M1856 2143 c-6 -14 -5 -15 5 -6 7 7 10 15 7 18 -3 3 -9 -2 -12 -12z"/>
<path d="M1951 2124 c0 -11 3 -14 6 -6 3 7 2 16 -1 19 -3 4 -6 -2 -5 -13z"/>
<path d="M1888 1824 c-2 -25 -1 -47 3 -49 3 -2 6 18 8 46 3 62 -6 65 -11 3z"/>
<path d="M1957 1850 c10 -11 19 -20 21 -20 1 0 -2 9 -8 20 -6 11 -15 20 -20 20 -6 0 -2 -9 7 -20z"/>
<path d="M1921 1834 c0 -11 3 -14 6 -6 3 7 2 16 -1 19 -3 4 -6 -2 -5 -13z"/>
<path d="M2016 1812 c-3 -5 1 -9 9 -9 8 0 12 4 9 9 -3 4 -7 8 -9 8 -2 0 -6 -4 -9 -8z"/>
<path d="M1827 1789 c7 -7 15 -10 18 -7 3 3 -2 9 -12 12 -14 6 -15 5 -6 -5z"/>
<path d="M1923 1785 c0 -8 4 -12 9 -9 5 3 6 10 3 15 -9 13 -12 11 -12 -6z"/>
<path d="M1985 1791 c-3 -5 -1 -12 5 -16 5 -3 10 1 10 9 0 18 -6 21 -15 7z"/>
<path d="M1712 1528 c-82 -59 -96 -77 -50 -64 24 7 161 126 143 125 -5 0 -47 -28 -93 -61z"/>
<path d="M1838 1573 c-6 -7 -17 -13 -24 -13 -8 0 -14 -9 -14 -20 0 -26 44 -28 60 -2 10 15 10 14 5 -4 -5 -20 16 -40 38 -35 4 1 3 -8 -3 -19 -9 -17 -8 -20 11 -20 16 0 20 5 16 20 -3 13 0 20 9 20 8 0 17 0 22 0 4 0 7 -6 7 -12 0 -13 14 -28 26 -28 4 0 12 21 18 46 10 41 10 49 -6 66 -14 16 -28 19 -86 16 -40 -1 -73 -8 -79 -15z"/>
<path d="M1433 1504 c16 -17 110 -32 135 -23 13 5 36 9 52 9 16 0 32 5 36 11 5 9 -8 10 -47 5 -66 -9 -92 -9 -144 0 -23 3 -36 3 -32 -2z"/>
<path d="M2186 1502 c-3 -6 -1 -14 6 -18 20 -13 188 -8 201 5 9 9 -7 12 -68 10 -44 -1 -92 1 -106 5 -16 5 -29 4 -33 -2z"/>
<path d="M1596 1441 c-3 -5 0 -14 8 -20 10 -9 15 -8 19 3 9 22 -15 37 -27 17z"/>
<path d="M1900 1435 c0 -9 5 -15 11 -13 6 2 11 8 11 13 0 5 -5 11 -11 13 -6 2 -11 -4 -11 -13z"/>
<path d="M2206 1443 c-11 -11 -6 -23 9 -23 8 0 15 4 15 9 0 13 -16 22 -24 14z"/>
<path d="M1598 1379 c-42 -16 -34 -30 13 -23 24 4 56 2 80 -6 32 -11 46 -11 79 0 33 11 49 11 96 0 49 -12 61 -12 100 3 39 14 49 14 85 2 41 -15 82 -12 107 8 9 7 26 6 54 -2 26 -8 44 -9 50 -3 15 15 -58 35 -100 27 -20 -4 -55 -6 -77 -5 -22 1 -57 1 -77 0 -36 0 -91 0 -193 0 -25 0 -62 -1 -82 -1 -21 -1 -54 1 -73 4 -19 4 -47 2 -62 -4z"/>
<path d="M1681 1311 c-29 -19 18 -25 203 -23 278 2 275 2 281 12 10 17 -47 23 -95 11 -36 -9 -58 -9 -94 0 -28 7 -65 9 -94 4 -64 -10 -110 -11 -152 -2 -19 4 -41 3 -49 -2z"/>
<path d="M4085 2541 c0 -33 3 -57 7 -55 4 3 8 0 8 -5 0 -6 -7 -11 -16 -11 -8 0 -12 -5 -9 -11 4 -5 12 -8 18 -6 15 5 16 147 2 147 -6 0 -10 -27 -10 -59z"/>
<path d="M5395 2180 c-5 -8 10 -50 18 -50 1 0 2 14 3 30 1 30 -9 39 -21 20z"/>
<path d="M560 2088 c-12 -8 -12 -9 2 -5 9 3 19 1 22 -6 3 -9 5 -9 5 0 1 18 -13 23 -29 11z"/>
<path d="M1000 1771 c0 -6 4 -13 10 -16 6 -3 7 1 4 9 -7 18 -14 21 -14 7z"/>
<path d="M500 1645 c0 -8 4 -15 10 -15 5 0 7 7 4 15 -4 8 -8 15 -10 15 -2 0 -4 -7 -4 -15z"/>
<path d="M1297 1228 c-20 -21 -25 -34 -18 -41 7 -7 17 -2 31 16 12 15 28 27 37 27 13 0 13 3 3 15 -16 19 -20 18 -53 -17z"/>
<path d="M2477 1234 c-3 -4 0 -19 8 -35 8 -15 15 -35 15 -44 0 -17 16 -20 26 -4 3 6 0 15 -7 20 -12 8 -12 11 1 18 9 7 17 6 21 -1 7 -11 29 -3 29 11 0 7 -64 41 -79 41 -4 0 -10 -3 -14 -6z"/>
<path d="M1400 1180 c0 -6 -11 -22 -24 -35 -19 -19 -22 -26 -11 -35 10 -8 14 -5 19 15 4 14 11 25 16 25 6 0 5 -10 -2 -25 -9 -21 -8 -27 13 -44 25 -21 44 -28 35 -12 -3 5 6 21 20 36 20 22 23 30 12 36 -18 12 -24 11 -38 -6 -10 -12 -10 -15 0 -15 10 0 10 -3 0 -15 -15 -18 -36 -21 -23 -2 13 18 10 79 -4 84 -7 3 -13 0 -13 -7z"/>
<path d="M2390 1160 c-11 -7 -12 -11 0 -24 7 -9 10 -19 7 -22 -3 -3 -11 3 -18 14 -12 19 -12 19 -43 -2 l-32 -20 32 -28 c35 -31 54 -36 54 -13 0 8 6 12 14 9 20 -8 23 6 11 53 -8 33 -14 40 -25 33z m-21 -66 c3 -16 1 -17 -13 -5 -19 16 -21 34 -3 29 6 -3 14 -13 16 -24z"/>
<path d="M1543 1050 c-20 -18 -28 -32 -22 -36 6 -4 15 -1 19 6 4 7 13 9 19 6 6 -4 8 -12 5 -18 -6 -9 12 -28 26 -28 3 0 6 23 7 50 3 59 -8 63 -54 20z"/>
<path d="M2186 1051 c-12 -13 -15 -27 -11 -41 8 -27 67 -56 92 -45 17 7 17 7 -1 14 -14 5 -16 10 -8 15 29 18 0 76 -37 76 -10 0 -26 -9 -35 -19z m59 -22 c4 -12 2 -26 -3 -31 -17 -17 -42 -1 -42 27 0 32 35 35 45 4z"/>
<path d="M1684 1008 c-1 -18 -6 -34 -13 -36 -14 -5 -4 -22 14 -22 8 0 11 7 8 19 -3 10 0 21 5 25 5 3 12 -8 16 -24 7 -38 23 -38 31 0 4 16 11 32 16 35 16 10 10 25 -10 25 -14 0 -18 -6 -15 -22 3 -18 1 -17 -8 5 -17 38 -43 35 -44 -5z"/>
<path d="M2052 1014 c-5 -11 -13 -34 -17 -51 -5 -26 -3 -33 9 -33 10 0 13 6 10 15 -4 9 0 15 10 15 9 0 16 -4 16 -10 0 -5 9 -10 21 -10 21 0 21 0 -2 38 -32 53 -36 56 -47 36z"/>
<path d="M1877 1004 c-13 -14 -7 -27 7 -15 19 16 26 -4 15 -41 -7 -25 -5 -28 14 -28 20 0 22 4 18 42 -3 40 -2 42 14 28 16 -13 18 -13 13 0 -5 16 -68 26 -81 14z"/>
<path d="M5905 1420 c-3 -5 -2 -10 4 -10 5 0 13 5 16 10 3 6 2 10 -4 10 -5 0 -13 -4 -16 -10z"/>
<path d="M6271 1274 c0 -11 3 -14 6 -6 3 7 2 16 -1 19 -3 4 -6 -2 -5 -13z"/>
<path d="M3455 1290 c-3 -5 -2 -10 4 -10 5 0 13 5 16 10 3 6 2 10 -4 10 -5 0 -13 -4 -16 -10z"/>
<path d="M1110 1136 c0 -8 5 -18 10 -21 6 -3 10 1 10 9 0 8 -4 18 -10 21 -5 3 -10 -1 -10 -9z"/>
<path d="M2360 3910 c0 -5 12 -10 28 -9 24 0 25 1 7 9 -27 12 -35 12 -35 0z"/>
<path d="M150 3844 c-22 -12 -23 -13 -5 -13 24 -1 50 14 38 22 -4 3 -19 -1 -33 -9z"/>
<path d="M2760 3507 c0 -15 27 -43 34 -36 3 2 -4 15 -15 28 -13 16 -19 18 -19 8z"/>
<path d="M2699 3499 c14 -5 28 -6 32 -2 4 4 -6 9 -24 10 -30 1 -31 1 -8 -8z"/>
<path d="M2767 3439 c7 -7 15 -10 18 -7 3 3 -2 9 -12 12 -14 6 -15 5 -6 -5z"/>
<path d="M2803 3194 c0 -9 8 -9 29 -2 36 13 36 18 0 15 -16 -1 -29 -7 -29 -13z"/>
<path d="M2821 3083 c10 -11 14 -12 17 -3 3 8 10 4 19 -11 l13 -24 -2 25 c-2 19 -9 25 -31 27 -25 2 -27 0 -16 -14z"/>
<path d="M2936 3045 c4 -8 8 -15 10 -15 2 0 4 7 4 15 0 8 -4 15 -10 15 -5 0 -7 -7 -4 -15z"/>
<path d="M2818 3005 c3 -19 8 -23 15 -16 8 8 7 16 -5 27 -14 14 -15 14 -10 -11z"/>
<path d="M20 2779 c0 -5 5 -7 10 -4 6 3 10 8 10 11 0 2 -4 4 -10 4 -5 0 -10 -5 -10 -11z"/>
<path d="M4915 2699 c-4 -6 -5 -12 -2 -15 2 -3 7 2 10 11 7 17 1 20 -8 4z"/>
<path d="M4675 2670 c-3 -5 -2 -10 4 -10 5 0 13 5 16 10 3 6 2 10 -4 10 -5 0 -13 -4 -16 -10z"/>
<path d="M4645 2600 c-3 -5 -1 -10 4 -10 6 0 11 5 11 10 0 6 -2 10 -4 10 -3 0 -8 -4 -11 -10z"/>
<path d="M4610 2565 c-7 -9 -10 -18 -7 -21 3 -3 10 4 17 15 13 25 8 27 -10 6z"/>
<path d="M2666 2473 c-11 -11 -6 -23 9 -23 8 0 15 4 15 9 0 13 -16 22 -24 14z"/>
<path d="M3041 2443 c19 -24 71 -73 77 -73 8 0 -31 54 -52 72 -27 22 -42 23 -25 1z"/>
<path d="M2701 2424 c0 -11 3 -14 6 -6 3 7 2 16 -1 19 -3 4 -6 -2 -5 -13z"/>
<path d="M5257 2433 c-4 -3 -7 -11 -7 -17 0 -6 5 -5 12 2 6 6 9 14 7 17 -3 3 -9 2 -12 -2z"/>
<path d="M2653 2403 c-8 -3 -13 -23 -13 -50 0 -38 2 -44 14 -34 12 10 15 7 19 -21 l4 -33 1 33 c1 17 7 32 12 32 6 0 8 -10 4 -24 -3 -14 -2 -31 2 -38 6 -9 11 0 16 27 10 58 9 95 -2 95 -5 0 -10 -11 -10 -25 0 -18 -5 -25 -20 -25 -11 0 -20 5 -20 10 0 6 7 10 15 10 8 0 15 8 15 18 0 14 -2 14 -9 3 -7 -11 -10 -10 -13 6 -1 11 -9 18 -15 16z"/>
<path d="M2872 2390 c0 -14 2 -19 5 -12 2 6 2 18 0 25 -3 6 -5 1 -5 -13z"/>
<path d="M5835 2389 c-4 -6 -5 -12 -2 -15 2 -3 7 2 10 11 7 17 1 20 -8 4z"/>
<path d="M2770 2360 c6 -11 13 -20 15 -20 3 0 5 9 5 20 0 11 -7 20 -15 20 -13 0 -14 -4 -5 -20z"/>
<path d="M2810 2364 c0 -8 5 -12 10 -9 6 4 8 11 5 16 -9 14 -15 11 -15 -7z"/>
<path d="M4616 2353 c-6 -14 -5 -15 5 -6 7 7 10 15 7 18 -3 3 -9 -2 -12 -12z"/>
<path d="M2880 2335 c0 -8 2 -15 4 -15 2 0 6 7 10 15 3 8 1 15 -4 15 -6 0 -10 -7 -10 -15z"/>
<path d="M5645 2329 c-4 -6 -5 -12 -2 -15 2 -3 7 2 10 11 7 17 1 20 -8 4z"/>
<path d="M2837 2323 c-11 -10 -8 -71 3 -78 6 -4 10 12 10 39 0 47 -2 51 -13 39z"/>
<path d="M2761 2293 c0 -25 1 -26 9 -8 12 27 12 35 0 35 -5 0 -10 -12 -9 -27z"/>
<path d="M2987 2283 c-4 -3 -7 -11 -7 -17 0 -6 5 -5 12 2 6 6 9 14 7 17 -3 3 -9 2 -12 -2z"/>
<path d="M3126 2276 c3 -8 13 -17 22 -21 13 -5 13 -2 -3 15 -21 24 -26 25 -19 6z"/>
<path d="M5072 2244 c-11 -12 -11 -18 -2 -29 15 -18 40 -20 40 -4 0 6 -7 8 -16 5 -13 -5 -15 -1 -10 19 7 29 6 30 -12 9z"/>
<path d="M2950 2226 c0 -9 5 -16 10 -16 6 0 10 4 10 9 0 6 -4 13 -10 16 -5 3 -10 -1 -10 -9z"/>
<path d="M3126 2195 c4 -8 11 -15 16 -15 6 0 5 6 -2 15 -7 8 -14 15 -16 15 -2 0 -1 -7 2 -15z"/>
<path d="M2950 2183 c0 -9 6 -13 15 -9 11 4 15 -1 15 -19 0 -34 16 -32 23 3 6 32 6 33 -27 36 -18 2 -26 -2 -26 -11z"/>
<path d="M3018 2171 c-5 -18 -8 -45 -7 -60 l0 -26 10 25 c6 13 9 40 7 60 l-3 35 -7 -34z"/>
<path d="M5020 2132 c0 -23 5 -42 10 -42 7 0 8 14 4 38 -9 51 -14 53 -14 4z"/>
<path d="M4478 2113 c7 -3 16 -2 19 1 4 3 -2 6 -13 5 -11 0 -14 -3 -6 -6z"/>
<path d="M4455 2089 c-4 -6 -25 -24 -47 -40 -23 -16 -38 -29 -34 -29 9 0 63 37 90 62 11 10 15 18 8 18 -6 0 -14 -5 -17 -11z"/>
<path d="M4345 1970 c-3 -5 -2 -10 4 -10 5 0 13 5 16 10 3 6 2 10 -4 10 -5 0 -13 -4 -16 -10z"/>
<path d="M5896 1958 c3 -5 10 -6 15 -3 13 9 11 12 -6 12 -8 0 -12 -4 -9 -9z"/>
<path d="M4286 1891 c-4 -7 -5 -15 -2 -18 9 -9 19 4 14 18 -4 11 -6 11 -12 0z"/>
<path d="M4190 1870 c0 -5 5 -10 10 -10 6 0 10 5 10 10 0 6 -4 10 -10 10 -5 0 -10 -4 -10 -10z"/>
<path d="M4218 1833 c6 -2 18 -2 25 0 6 3 1 5 -13 5 -14 0 -19 -2 -12 -5z"/>
<path d="M4300 1665 c15 -18 36 -20 46 -4 4 8 0 9 -15 4 -12 -4 -21 -2 -21 4 0 6 -5 11 -11 11 -8 0 -8 -5 1 -15z"/>
<path d="M4114 1599 c-3 -6 -8 -30 -9 -53 -1 -22 -5 -54 -9 -71 -13 -59 -15 -129 -4 -142 19 -23 26 -4 27 79 0 46 4 109 7 141 6 55 3 69 -12 46z"/>
<path d="M4195 1550 c-3 -5 -1 -10 4 -10 6 0 11 5 11 10 0 6 -2 10 -4 10 -3 0 -8 -4 -11 -10z"/>
<path d="M4160 1530 c0 -9 6 -24 14 -35 7 -11 15 -29 18 -40 2 -11 6 -15 10 -10 3 6 -5 30 -18 55 -12 25 -23 38 -24 30z"/>
<path d="M4310 1335 c-7 -9 -10 -18 -7 -21 3 -3 10 4 17 15 13 25 8 27 -10 6z"/>
<path d="M4170 1305 c0 -8 2 -15 4 -15 2 0 6 7 10 15 3 8 1 15 -4 15 -6 0 -10 -7 -10 -15z"/>
<path d="M3153 1238 c-20 -26 -26 -41 -15 -34 12 7 36 46 29 46 -3 0 -9 -6 -14 -12z"/>
<path d="M6837 1183 c-4 -3 -7 -13 -7 -22 1 -13 3 -13 11 2 11 19 8 33 -4 20z"/>
<path d="M6876 1165 c-11 -8 -14 -15 -7 -15 7 0 10 -4 7 -9 -3 -5 1 -12 10 -15 8 -3 12 -2 9 4 -3 5 4 14 16 21 17 9 19 13 8 20 -18 11 -20 11 -43 -6z m29 -5 c-3 -5 -11 -10 -16 -10 -6 0 -7 5 -4 10 3 6 11 10 16 10 6 0 7 -4 4 -10z"/>
<path d="M2840 1140 c20 -13 33 -13 25 0 -3 6 -14 10 -23 10 -15 0 -15 -2 -2 -10z"/>
<path d="M6822 1040 c0 -14 2 -19 5 -12 2 6 2 18 0 25 -3 6 -5 1 -5 -13z"/>
<path d="M2790 1020 c0 -5 5 -10 10 -10 6 0 10 5 10 10 0 6 -4 10 -10 10 -5 0 -10 -4 -10 -10z"/>
<path d="M5505 260 c-3 -5 -1 -10 4 -10 6 0 11 5 11 10 0 6 -2 10 -4 10 -3 0 -8 -4 -11 -10z"/>
<path d="M5435 229 c-4 -6 -5 -12 -2 -15 2 -3 7 2 10 11 7 17 1 20 -8 4z"/>
<path d="M4463 169 c-21 -8 -23 -15 -23 -89 l0 -80 81 0 c78 0 80 1 74 23 l-6 22 17 -23 c9 -12 25 -22 35 -22 15 0 17 5 13 29 -4 16 -1 32 5 35 16 10 13 72 -4 86 -8 7 -37 13 -64 14 -41 2 -48 0 -44 -13 4 -11 1 -10 -9 3 -9 12 -20 16 -28 11 -7 -4 -15 -3 -19 2 -3 7 -15 7 -28 2z m79 -53 c4 -6 8 -27 8 -46 0 -19 -4 -39 -8 -45 -12 -17 -41 -11 -57 12 -12 17 -12 21 -3 18 8 -3 22 1 33 9 19 15 19 15 -6 16 -15 0 -29 7 -33 15 -3 8 -1 15 4 15 6 0 9 3 9 8 -1 4 -1 10 0 14 2 9 45 -3 53 -16z m92 -9 c6 -23 -9 -47 -29 -47 -8 0 -12 13 -10 38 3 45 2 43 19 36 8 -3 17 -15 20 -27z"/>
<path d="M3618 110 c-1 -28 0 -50 5 -50 4 0 7 23 7 50 0 65 -7 65 -12 0z"/>
<path d="M4962 151 c-11 -7 -11 -9 2 -14 10 -4 16 -1 16 8 0 17 -1 17 -18 6z"/>
<path d="M3682 88 c1 -57 2 -58 5 -15 6 69 23 58 23 -15 1 -48 3 -59 11 -45 6 9 14 15 20 12 5 -4 9 2 10 12 0 10 1 38 2 62 1 28 -3 46 -11 49 -6 2 -12 -5 -12 -15 -1 -17 -1 -17 -14 0 -26 33 -36 20 -34 -45z"/>
<path d="M5441 143 c0 -6 -4 -20 -7 -30 -5 -14 -4 -15 5 -7 7 7 11 20 8 30 -3 11 -5 14 -6 7z"/>
<path d="M4920 131 c0 -5 10 -11 22 -14 l23 -6 -23 -21 c-12 -11 -22 -26 -22 -33 0 -7 -3 -22 -6 -34 l-6 -23 278 1 c186 0 269 4 249 10 -16 5 -41 7 -55 4 -20 -4 -33 2 -54 24 -24 25 -36 30 -72 29 -34 -2 -48 3 -70 25 -18 18 -38 28 -63 29 -82 4 -101 3 -101 -2 0 -9 -70 1 -76 11 -7 12 -24 12 -24 0z"/>
<path fill="blue" d="M5530 101 c0 -30 13 -41 25 -21 3 6 2 10 -4 10 -6 0 -8 6 -5 14 3 8 1 17 -5 21 -7 4 -11 -5 -11 -24z"/>
<path d="M5475 91 c-3 -5 -1 -12 5 -16 5 -3 10 1 10 9 0 18 -6 21 -15 7z"/>
<path d="M3610 40 c0 -5 5 -10 10 -10 6 0 10 5 10 10 0 6 -4 10 -10 10 -5 0 -10 -4 -10 -10z"/>
<path d="M5340 46 c0 -2 7 -9 15 -16 9 -7 15 -8 15 -2 0 5 -7 12 -15 16 -8 3 -15 4 -15 2z"/>
<path d="M3840 15 c-10 -12 -10 -15 4 -15 9 0 16 7 16 15 0 8 -2 15 -4 15 -2 0 -9 -7 -16 -15z"/>
</g>
</svg>